<svg width="31" height="31" viewBox="0 0 31 31" fill="none" xmlns="http://www.w3.org/2000/svg">
<path d="M28.3961 16.6192L27.1731 15.7988C28.0607 13.9442 28.3251 11.8522 27.9269 9.8345C27.5287 7.81679 26.4892 5.98132 24.9633 4.60155L26.5424 2.24745C26.7438 1.94728 26.8176 1.57938 26.7476 1.22467C26.6776 0.869956 26.4695 0.557498 26.1692 0.35603C25.8688 0.154561 25.5008 0.0805844 25.146 0.150374C24.7913 0.220165 24.4789 0.428004 24.2775 0.728171L22.6984 3.08227C20.8429 2.19385 18.7503 1.92835 16.7324 2.32534C14.7144 2.72233 12.8791 3.76056 11.4999 5.28535L10.2768 4.46494C9.3758 3.86054 8.27171 3.63861 7.20746 3.84798C6.1432 4.05735 5.20596 4.68087 4.60191 5.58137C3.99787 6.48187 3.77649 7.58559 3.9865 8.64972C4.1965 9.71385 4.82068 10.6512 5.72171 11.2556L8.53473 13.1426L1.56084 17.6642C1.40785 17.7602 1.27549 17.8857 1.17146 18.0333C1.06742 18.1809 0.993786 18.3478 0.954829 18.5241C0.915872 18.7005 0.91237 18.8829 0.944528 19.0606C0.976685 19.2384 1.04386 19.408 1.14215 19.5597C1.24044 19.7113 1.36788 19.8419 1.51706 19.9439C1.66625 20.0458 1.83421 20.1172 2.01117 20.1537C2.18813 20.1902 2.37058 20.1912 2.54789 20.1566C2.72521 20.1221 2.89386 20.0526 3.04405 19.9523L10.9978 14.7948L13.6489 16.5731L10.6121 21.1002C10.4108 21.4004 10.337 21.7683 10.407 22.123C10.477 22.4777 10.6851 22.7902 10.9854 22.9916C11.2858 23.1931 11.6538 23.2671 12.0085 23.1973C12.3633 23.1275 12.6757 22.9197 12.8771 22.6195L15.9138 18.0924L18.5649 19.8707L16.8136 29.1887C16.7525 29.5416 16.8328 29.9044 17.0371 30.1987C17.2415 30.493 17.5534 30.6951 17.9055 30.7614C18.2575 30.8276 18.6215 30.7527 18.9186 30.5528C19.2157 30.3529 19.4222 30.0441 19.4933 29.6931L21.028 21.5229L23.841 23.4099C24.742 24.0143 25.8461 24.2362 26.9104 24.0268C27.9746 23.8174 28.9119 23.1939 29.5159 22.2934C30.12 21.3929 30.3413 20.2892 30.1313 19.2251C29.9213 18.1609 29.2971 17.2236 28.3961 16.6192ZM22.3732 6.01493C23.6771 6.89167 24.639 8.19095 25.0967 9.69369C25.5543 11.1964 25.4797 12.8107 24.8855 14.2643L13.7874 6.81982C14.907 5.71859 16.3723 5.03721 17.9363 4.89059C19.5003 4.74397 21.0674 5.14107 22.3732 6.01493ZM25.3594 21.1463L7.24009 8.99207C6.93974 8.7906 6.73168 8.47814 6.66168 8.12343C6.59168 7.76872 6.66547 7.40081 6.86682 7.10065C7.06817 6.80048 7.38058 6.59264 7.73534 6.52285C8.09009 6.45306 8.45812 6.52704 8.75846 6.7285L26.8777 18.8827C27.1781 19.0842 27.3861 19.3967 27.4561 19.7514C27.5261 20.1061 27.4523 20.474 27.251 20.7741C27.0497 21.0743 26.7372 21.2822 26.3825 21.3519C26.0277 21.4217 25.6597 21.3478 25.3594 21.1463Z" fill="white"/>
</svg>
