<svg width="65" height="63" viewBox="0 0 65 63" fill="none" xmlns="http://www.w3.org/2000/svg">
<g clip-path="url(#clip0_20_37)">
<path d="M65 31.5C65 48.8977 50.4519 63 32.5 63C14.552 63 0 48.8977 0 31.5C0 14.1023 14.552 0 32.5 0C50.4519 0 65 14.1023 65 31.5Z" fill="#E6E9ED"/>
<path d="M64.7024 35.7951C64.8969 34.3897 65 32.9574 65 31.5001C65 31.2597 64.9961 31.0213 64.9921 30.7849C64.7461 31.356 64.2265 32.0096 63.4885 32.6633C61.9849 33.9899 59.656 35.2647 56.7521 36.3509C53.6496 37.5083 50.0157 38.4235 45.9532 39.0656C41.6964 39.7366 37.1737 40.0769 32.5001 40.0769C27.8307 40.0769 23.3039 39.7366 19.051 39.0656C14.9845 38.4234 11.3505 37.5083 8.25208 36.3509C5.34803 35.2647 3.0192 33.9899 1.51569 32.6633C0.773779 32.0097 0.258096 31.356 0.008125 30.7849C0.00393555 31.0213 0 31.2597 0 31.5001C0 32.9574 0.103086 34.3897 0.301514 35.7951C6.0144 40.294 18.2852 43.4067 32.5 43.4067C46.7148 43.4067 58.9856 40.2941 64.7024 35.7951Z" fill="#CCD1D9"/>
<path d="M50.0791 15.6905C53.2212 18.734 53.729 23.1772 51.2178 25.6112C48.7065 28.0452 44.1243 27.553 40.9822 24.5076C37.8401 21.466 37.3323 17.0229 39.8435 14.5869C42.3587 12.1529 46.941 12.6451 50.0791 15.6905Z" fill="#656D78"/>
</g>
<defs>
<clipPath id="clip0_20_37">
<rect width="65" height="63" fill="white"/>
</clipPath>
</defs>
</svg>
