<svg width="24" height="24" viewBox="0 0 24 24" fill="none" xmlns="http://www.w3.org/2000/svg">
<g clip-path="url(#clip0_73_4)">
<path d="M11.566 21.563V12.801C11.821 12.824 12.066 12.836 12.324 12.836C13.547 12.836 14.698 12.516 15.674 11.943V21.561C15.674 22.383 15.479 22.99 15.099 23.395C14.721 23.798 14.219 24 13.608 24C13.008 24 12.531 23.798 12.14 23.382C11.762 22.979 11.566 22.372 11.566 21.563ZM11.589 0.565985C14.134 -0.327015 17.031 -0.279015 19.208 1.55298C19.613 1.92198 20.075 2.38598 20.259 2.93298C20.479 3.62498 19.489 2.85998 19.353 2.76598C18.643 2.31298 17.935 1.93298 17.141 1.67198C12.86 0.386985 8.81201 2.70898 6.29501 6.31498C5.24301 7.90898 4.55801 9.58698 3.99501 11.432C3.93501 11.634 3.88601 11.897 3.77501 12.074C3.66301 12.277 3.72701 11.528 3.72701 11.504C3.81101 10.741 3.97101 10.004 4.16801 9.26698C5.33001 5.33698 7.89701 2.06598 11.59 0.565985H11.589ZM16.517 7.62498C16.517 8.02158 16.4389 8.41429 16.2871 8.78069C16.1354 9.14709 15.9129 9.48001 15.6325 9.76045C15.352 10.0409 15.0191 10.2633 14.6527 10.4151C14.2863 10.5669 13.8936 10.645 13.497 10.645C13.1004 10.645 12.7077 10.5669 12.3413 10.4151C11.9749 10.2633 11.642 10.0409 11.3615 9.76045C11.0811 9.48001 10.8587 9.14709 10.7069 8.78069C10.5551 8.41429 10.477 8.02158 10.477 7.62498C10.477 7.22839 10.5551 6.83568 10.7069 6.46928C10.8587 6.10288 11.0811 5.76996 11.3615 5.48952C11.642 5.20909 11.9749 4.98664 12.3413 4.83487C12.7077 4.6831 13.1004 4.60498 13.497 4.60498C13.8936 4.60498 14.2863 4.6831 14.6527 4.83487C15.0191 4.98664 15.352 5.20909 15.6325 5.48952C15.9129 5.76996 16.1354 6.10288 16.2871 6.46928C16.4389 6.83568 16.517 7.22839 16.517 7.62498Z" fill="#2164F3"/>
</g>
<defs>
<clipPath id="clip0_73_4">
<rect width="24" height="24" fill="white"/>
</clipPath>
</defs>
</svg>
