<svg width="65" height="63" viewBox="0 0 65 63" fill="none" xmlns="http://www.w3.org/2000/svg">
<path d="M56.2847 10.0366C56.4858 10.2458 56.6842 10.4577 56.8793 10.6723C56.684 10.4577 56.4858 10.2458 56.2847 10.0366Z" fill="#FFD042"/>
<path d="M51.7473 6.11816C51.8496 6.19114 51.9517 6.26411 52.0529 6.33814C51.9515 6.26398 51.8494 6.19101 51.7473 6.11816Z" fill="#FFD042"/>
<path d="M54.1179 7.98145C54.3313 8.16598 54.5424 8.35288 54.7509 8.54267C54.5426 8.35275 54.3315 8.16585 54.1179 7.98145Z" fill="#FFD042"/>
<path d="M56.9224 10.719C57.0272 10.8346 57.131 10.9509 57.2341 11.068C57.1309 10.951 57.0272 10.8346 56.9224 10.719Z" fill="#FFD042"/>
<path d="M37.8841 62.5674C37.3691 62.6509 36.8499 62.722 36.3269 62.7817C36.8499 62.7221 37.3691 62.6506 37.8841 62.5674Z" fill="#FFD042"/>
<path d="M35.9292 62.8257C35.8134 62.8375 35.6971 62.8476 35.5811 62.8582C35.6971 62.8477 35.8134 62.8375 35.9292 62.8257Z" fill="#FFD042"/>
<path d="M38.6134 62.4412C38.4386 62.4734 38.2637 62.505 38.0879 62.5346C38.2637 62.5052 38.4386 62.4734 38.6134 62.4412Z" fill="#FFD042"/>
<path d="M35.1538 62.8948C35.0428 62.9034 34.9316 62.9114 34.8203 62.9191C34.9316 62.9114 35.0428 62.9036 35.1538 62.8948Z" fill="#FFD042"/>
<path d="M64.8833 28.8381C64.892 28.9388 64.9013 29.0393 64.909 29.1404C64.9013 29.0393 64.8919 28.9389 64.8833 28.8381Z" fill="#FFD042"/>
<path d="M64.9839 30.5481C64.9861 30.6237 64.9884 30.6993 64.9902 30.775C64.9885 30.6993 64.9861 30.6237 64.9839 30.5481Z" fill="#FFD042"/>
<path d="M39.7263 0.782715C39.7833 0.795184 39.8405 0.80739 39.8973 0.820252C39.8405 0.807521 39.7833 0.795315 39.7263 0.782715Z" fill="#FFD042"/>
<path d="M42.0847 1.39331C42.153 1.41379 42.2209 1.43465 42.2891 1.45552C42.2209 1.43465 42.153 1.41365 42.0847 1.39331Z" fill="#FFD042"/>
<path d="M38.1445 0.474609C38.2022 0.484453 38.26 0.493903 38.3176 0.504009C38.26 0.493903 38.2022 0.484322 38.1445 0.474609Z" fill="#FFD042"/>
<path d="M43.5793 1.87891C43.6538 1.90503 43.7279 1.9318 43.8021 1.95844C43.728 1.93167 43.6538 1.90503 43.5793 1.87891Z" fill="#FFD042"/>
<path d="M49.8462 4.85913C49.9727 4.9367 50.0983 5.01506 50.2236 5.09433C50.0983 5.01506 49.9727 4.93657 49.8462 4.85913Z" fill="#FFD042"/>
<path d="M44.2844 2.13623C44.3416 2.15776 44.399 2.17862 44.456 2.20054C44.3991 2.17876 44.3416 2.15776 44.2844 2.13623Z" fill="#FFD042"/>
<path d="M45.0393 2.4314C45.1192 2.46382 45.199 2.49676 45.2786 2.52983C45.199 2.49676 45.1193 2.46395 45.0393 2.4314Z" fill="#FFD042"/>
<path d="M45.7336 2.7229C45.823 2.76149 45.9123 2.80047 46.0011 2.83984C45.9121 2.80047 45.8229 2.76149 45.7336 2.7229Z" fill="#FFD042"/>
<path d="M55.8417 9.58406C55.6397 9.38207 55.4349 9.18283 55.2275 8.98608C55.4349 9.18296 55.6397 9.38207 55.8417 9.58406Z" fill="#FFD042"/>
<path d="M59.212 13.557C59.3675 13.774 59.5206 13.9928 59.6707 14.2137C59.4027 13.8189 59.1262 13.4302 58.8406 13.0481C58.9654 13.2152 59.088 13.3838 59.2095 13.5534C59.2103 13.5546 59.2111 13.5558 59.212 13.557Z" fill="#FFD042"/>
<path d="M32.4999 42.75C28.0591 42.75 23.8205 42.4619 19.94 41.9395C20.2122 43.5304 20.607 45.0811 21.1155 46.5818C13.2205 45.6327 6.686 43.7308 2.78086 41.2864C2.77463 41.2825 2.76867 41.2786 2.76258 41.2747C2.63826 41.1967 2.51707 41.118 2.39817 41.0389C2.38165 41.0278 2.36499 41.0169 2.34861 41.006C2.22524 40.9232 2.10459 40.84 1.98718 40.756C1.97581 40.7479 1.96484 40.7396 1.95346 40.7315C1.85176 40.6584 1.75291 40.5846 1.65582 40.5107C1.62954 40.4906 1.60327 40.4705 1.57727 40.4505C1.47111 40.3682 1.36684 40.2856 1.26636 40.2023C2.28212 43.6328 3.88125 46.8216 5.95584 49.6642C7.57623 50.3581 9.43361 50.9871 11.4875 51.5374C12.2041 51.7294 12.9433 51.9123 13.7064 52.0843C14.128 52.1794 14.5563 52.2714 14.9912 52.36C14.9912 52.36 14.9892 52.356 14.9856 52.3484C14.9781 52.3332 14.9635 52.3033 14.9433 52.2605C14.8726 52.111 14.7333 51.805 14.5893 51.4276C14.5482 51.3197 14.5067 51.206 14.4664 51.0884C14.426 50.9708 14.3867 50.8494 14.3502 50.726C14.3171 50.6149 14.2867 50.5021 14.259 50.3894C14.1793 50.0641 14.1259 49.7381 14.1261 49.4458C14.1261 49.3896 14.1281 49.3346 14.1323 49.2812C14.1399 49.184 14.1556 49.0925 14.1785 49.0068C14.1999 48.9265 14.2297 48.8526 14.2665 48.7847C14.2837 48.7529 14.3026 48.7226 14.3235 48.6941C14.4725 48.4903 14.715 48.3676 15.0893 48.3747C15.1658 48.3761 15.2424 48.3789 15.3195 48.3829C15.3409 48.384 15.3624 48.386 15.3838 48.3873C15.4395 48.3907 15.4951 48.394 15.5511 48.3986C15.5806 48.4011 15.6104 48.4045 15.6399 48.4072C15.6878 48.4117 15.7355 48.416 15.7836 48.4214C15.818 48.4253 15.8525 48.4301 15.8869 48.4344C15.9306 48.4399 15.9744 48.445 16.0184 48.4512C16.0543 48.4562 16.0904 48.4622 16.1264 48.4677C16.1691 48.4743 16.2116 48.4805 16.2545 48.4877C16.2918 48.494 16.3293 48.5011 16.3667 48.5078C16.4086 48.5153 16.4505 48.5226 16.4926 48.5307C16.5309 48.5381 16.5694 48.5464 16.6078 48.5542C16.6491 48.5626 16.6903 48.5709 16.7318 48.5798C16.7712 48.5884 16.8107 48.5977 16.8502 48.6067C16.8911 48.616 16.9319 48.6252 16.9729 48.6351C17.0131 48.6448 17.0536 48.6552 17.094 48.6654C17.1343 48.6755 17.1746 48.6855 17.2149 48.6961C17.2557 48.7069 17.2967 48.7182 17.3376 48.7293C17.3782 48.7403 17.4187 48.7512 17.4593 48.7628C17.4998 48.7742 17.5403 48.7863 17.5808 48.7981C17.6223 48.8102 17.6636 48.8221 17.7051 48.8347C17.7456 48.8469 17.7861 48.8596 17.8266 48.8724C17.8684 48.8854 17.9103 48.8984 17.9523 48.9118C17.9929 48.9248 18.0335 48.9383 18.0743 48.9517C18.1165 48.9656 18.1588 48.9793 18.201 48.9937C18.2412 49.0072 18.2816 49.0212 18.3219 49.0353C18.3653 49.0502 18.4085 49.0651 18.4518 49.0804C18.4915 49.0945 18.5312 49.1089 18.571 49.1232C18.6153 49.1392 18.6594 49.1551 18.7038 49.1715C18.743 49.1859 18.7821 49.2006 18.8212 49.2153C18.8667 49.2324 18.9121 49.2495 18.9577 49.2669C18.9959 49.2815 19.0342 49.2964 19.0726 49.3113C19.1193 49.3294 19.166 49.3476 19.2129 49.3661C19.2502 49.3808 19.2876 49.3959 19.325 49.4109C19.3735 49.4303 19.4219 49.4498 19.4704 49.4696C19.506 49.484 19.5418 49.4988 19.5774 49.5134C19.628 49.5343 19.6788 49.5551 19.7296 49.5764C19.7635 49.5906 19.7974 49.6049 19.8314 49.6192C19.8844 49.6415 19.9375 49.6639 19.9906 49.6867C20.0225 49.7003 20.0546 49.7141 20.0867 49.728C20.1419 49.7519 20.1975 49.7758 20.253 49.8001C20.2832 49.8132 20.3134 49.8264 20.3437 49.8398C20.4019 49.8654 20.4604 49.8911 20.5189 49.9171C20.5454 49.9288 20.5718 49.9406 20.598 49.9524C20.6617 49.9808 20.7255 50.0094 20.7894 50.0383C20.8104 50.0477 20.8312 50.0572 20.8522 50.0668C20.9215 50.0981 20.9911 50.1298 21.0608 50.1615C21.0769 50.1689 21.0931 50.1762 21.1092 50.1837C21.1847 50.2182 21.2601 50.253 21.3358 50.2879C21.3454 50.2924 21.355 50.2968 21.3645 50.3012C21.9296 50.5625 22.5027 50.835 23.0829 51.1086C22.3162 49.6618 21.6504 48.1567 21.1191 46.5906C24.6742 47.0174 28.5058 47.25 32.4999 47.25C36.1466 47.25 39.6579 47.0561 42.9467 46.6977L47.1882 46.1253C54.6746 44.9099 60.6084 42.7942 63.7343 40.1998C62.7191 43.6296 61.1208 46.8179 59.047 49.6604C52.8871 52.3 43.2905 54.1585 32.4999 54.0001C29.2396 53.9521 26.0553 52.5106 23.0623 51.0989C24.4816 53.7811 26.2859 56.2402 28.4051 58.4077C28.4108 58.408 28.4163 58.4082 28.4219 58.4085C28.425 58.4118 28.4284 58.4148 28.4315 58.4181C29.7651 58.472 31.1226 58.5001 32.4999 58.5001C40.0177 58.5001 46.9496 57.6718 52.5523 56.2797C48.7697 59.1594 44.3141 61.2458 39.4506 62.2756C54.0596 59.1901 64.9999 46.5844 64.9999 31.5C64.9999 32.5525 64.9443 33.5924 64.8401 34.6184C60.7935 39.314 47.8516 42.75 32.4999 42.75Z" fill="#FFD042"/>
<path d="M33.4254 0.013395C33.3668 0.0118509 33.308 0.0104354 33.2493 0.00927734C33.2539 0.00940602 33.2585 0.0095347 33.2629 0.00966337C33.3171 0.0106928 33.3713 0.0118509 33.4254 0.013395Z" fill="#FFD042"/>
<path d="M58.5948 12.7232C58.6051 12.7367 58.6148 12.7506 58.6251 12.7642C58.6828 12.8396 58.7406 12.915 58.7976 12.991C58.6099 12.7409 58.4189 12.4937 58.2239 12.2493C58.349 12.406 58.4721 12.5644 58.5941 12.7235C58.5944 12.7233 58.5945 12.7233 58.5948 12.7232Z" fill="#FFD042"/>
<path d="M35.0794 0.0982606C35.0377 0.0951723 34.9959 0.0918267 34.9541 0.0888672C34.9773 0.09054 35.0003 0.0925988 35.0234 0.0942716C35.0423 0.095687 35.0608 0.0969738 35.0794 0.0982606Z" fill="#FFD042"/>
<path d="M60.2405 15.0959C60.4628 15.4494 60.6805 15.8057 60.8892 16.1678C54.912 19.298 44.4342 21.375 32.5 21.375C29.5096 21.375 26.6108 21.2446 23.8511 20.9998C22.4564 23.3356 21.3626 25.8608 20.6206 28.5264C20.623 28.5267 20.6253 28.5271 20.6278 28.5274C20.6276 28.5279 20.6275 28.5284 20.6274 28.5289C21.7576 28.6715 22.9155 28.7951 24.1003 28.8968L24.1 28.8959C30.2801 29.3019 34.32 31.8379 38.1369 32.5004C39.1573 32.6776 39.9027 31.5924 39.321 30.7608L38.1534 29.0919C49.6921 28.4397 59.2247 25.8234 63.5906 22.3093C64.1466 24.0784 64.5467 25.9131 64.7756 27.7987C64.1781 22.8508 62.398 18.254 59.7158 14.2798C59.8971 14.5485 60.0745 14.8199 60.2476 15.0943C60.2451 15.095 60.2428 15.0954 60.2405 15.0959ZM34.125 29.4C33.2276 29.4 32.5 28.9299 32.5 28.35C32.5 27.7702 33.2276 27.3 34.125 27.3C35.0224 27.3 35.75 27.7702 35.75 28.35C35.75 28.9299 35.0224 29.4 34.125 29.4Z" fill="#FFD042"/>
<path d="M36.71 0.262287C36.6521 0.25521 36.594 0.248519 36.5359 0.241699C36.5899 0.248004 36.644 0.25431 36.6978 0.260872C36.7019 0.261387 36.706 0.261901 36.71 0.262287Z" fill="#FFD042"/>
<path d="M26.9125 62.5345C26.7361 62.5049 26.5604 62.4732 26.385 62.4407C26.5604 62.4731 26.736 62.5049 26.9125 62.5345Z" fill="#FF9300"/>
<path d="M28.6752 62.7819C28.151 62.7221 27.6305 62.6507 27.1143 62.5671C27.6306 62.6506 28.151 62.7223 28.6752 62.7819Z" fill="#FF9300"/>
<path d="M30.1799 62.9191C30.0685 62.9114 29.9569 62.9034 29.8457 62.8948C29.9569 62.9036 30.0683 62.9114 30.1799 62.9191Z" fill="#FF9300"/>
<path d="M14.8046 57.9138C14.2953 57.5924 13.7958 57.2575 13.3067 56.9099C13.253 56.8717 13.1995 56.8333 13.1458 56.7949C12.9112 56.6258 12.678 56.4551 12.4483 56.2801C12.448 56.28 12.4478 56.2797 12.4475 56.2796L12.448 56.2797C12.7095 56.3447 12.9748 56.4081 13.242 56.4704C13.283 56.48 13.3239 56.4897 13.3652 56.4992C13.6413 56.5631 13.9199 56.6258 14.2018 56.6869C14.2028 56.6871 14.2036 56.6873 14.2045 56.6874C18.3894 57.5943 23.2165 58.1956 28.405 58.4074C26.2859 56.24 24.4816 53.7809 23.0623 51.0986C22.4892 50.8283 21.9231 50.5591 21.365 50.301C21.3553 50.2966 21.3457 50.2921 21.3362 50.2878C21.2606 50.2529 21.1851 50.2181 21.1097 50.1836C21.0936 50.1762 21.0773 50.1687 21.0612 50.1614C20.9916 50.1295 20.922 50.098 20.8527 50.0666C20.8317 50.0572 20.8107 50.0476 20.7898 50.0381C20.7259 50.0093 20.6621 49.9808 20.5985 49.9523C20.5721 49.9405 20.5457 49.9287 20.5194 49.917C20.4609 49.891 20.4025 49.8653 20.3442 49.8397C20.314 49.8264 20.2837 49.8132 20.2535 49.7999C20.1979 49.7756 20.1426 49.7518 20.0872 49.7279C20.0551 49.7141 20.023 49.7002 19.991 49.6865C19.9378 49.6638 19.8849 49.6414 19.8319 49.6191C19.7979 49.6048 19.7639 49.5903 19.7301 49.5763C19.6793 49.555 19.6285 49.5341 19.5779 49.5133C19.5421 49.4986 19.5065 49.4839 19.4709 49.4694C19.4223 49.4496 19.3738 49.4302 19.3254 49.4108C19.2881 49.3958 19.2506 49.3807 19.2133 49.366C19.1665 49.3475 19.1197 49.3293 19.073 49.3112C19.0347 49.2963 18.9964 49.2814 18.9582 49.2668C18.9126 49.2493 18.8672 49.2323 18.8217 49.2152C18.7826 49.2005 18.7434 49.1858 18.7043 49.1714C18.6599 49.155 18.6157 49.1391 18.5714 49.1231C18.5318 49.1088 18.492 49.0943 18.4523 49.0803C18.4089 49.0649 18.3656 49.0501 18.3224 49.0351C18.2821 49.0212 18.2417 49.0072 18.2015 48.9935C18.1591 48.9792 18.117 48.9654 18.0747 48.9515C18.0341 48.9381 17.9934 48.9246 17.9527 48.9116C17.9107 48.8981 17.8689 48.8852 17.8271 48.8722C17.7866 48.8596 17.7459 48.8469 17.7056 48.8346C17.6642 48.822 17.6227 48.81 17.5813 48.798C17.5408 48.7862 17.5002 48.7741 17.4598 48.7627C17.4191 48.7511 17.3786 48.7402 17.3381 48.7292C17.2972 48.718 17.2561 48.7066 17.2154 48.696C17.1749 48.6853 17.1347 48.6755 17.0945 48.6653C17.0541 48.6552 17.0136 48.6447 16.9734 48.6349C16.9324 48.6251 16.8916 48.616 16.8507 48.6066C16.8112 48.5975 16.7716 48.5882 16.7322 48.5797C16.6908 48.5706 16.6496 48.5625 16.6083 48.5541C16.5699 48.5462 16.5314 48.538 16.4931 48.5306C16.451 48.5225 16.4091 48.5152 16.3671 48.5076C16.3298 48.5009 16.2922 48.4937 16.255 48.4876C16.2122 48.4803 16.1696 48.4742 16.1269 48.4676C16.0909 48.4621 16.0547 48.4561 16.0188 48.4511C15.9748 48.4449 15.9312 48.4398 15.8874 48.4343C15.853 48.4299 15.8183 48.4251 15.784 48.4213C15.736 48.4159 15.6882 48.4117 15.6404 48.4071C15.6107 48.4043 15.581 48.4009 15.5515 48.3984C15.4956 48.3938 15.4399 48.3904 15.3843 48.3871C15.3629 48.3858 15.3414 48.384 15.32 48.3828C15.2429 48.3789 15.1661 48.376 15.0897 48.3745C14.7155 48.3675 14.4729 48.4902 14.324 48.694C14.3031 48.7226 14.2843 48.7529 14.267 48.7846C14.2301 48.8524 14.2005 48.9262 14.1789 49.0066C14.1561 49.0925 14.1403 49.1838 14.1328 49.2811C14.1286 49.3345 14.1267 49.3895 14.1265 49.4457C14.1264 49.7378 14.1797 50.0639 14.2595 50.3892C14.2871 50.502 14.3176 50.6147 14.3506 50.7259C14.3873 50.8493 14.4265 50.9707 14.4668 51.0883C14.5072 51.2059 14.5486 51.3195 14.5898 51.4274C14.7337 51.8049 14.8731 52.1108 14.9438 52.2603C14.9639 52.303 14.9786 52.333 14.986 52.3483C14.9898 52.3559 14.9917 52.3598 14.9917 52.3598C14.5567 52.2711 14.1284 52.1792 13.7069 52.0842C12.9438 51.9121 12.2044 51.7293 11.4879 51.5373C9.43407 50.987 7.5767 50.358 5.9563 49.6642C3.88158 46.8215 2.28258 43.6326 1.26682 40.2021V40.202C1.3673 40.2853 1.47157 40.3679 1.57774 40.4502C1.60374 40.4703 1.63001 40.4904 1.65628 40.5104C1.75337 40.5845 1.85223 40.6581 1.95393 40.7312C1.9653 40.7393 1.97627 40.7476 1.98765 40.7557C2.10505 40.8397 2.22571 40.923 2.34907 41.0058C2.36546 41.0168 2.38211 41.0277 2.39864 41.0386C2.51753 41.1177 2.63873 41.1964 2.76304 41.2744C2.76914 41.2783 2.77523 41.2822 2.78132 41.2861C6.68647 43.7305 13.221 45.6325 21.1159 46.5815C20.6074 45.0808 20.2127 43.5301 19.9405 41.9392C11.6086 40.8177 4.93039 38.6138 1.45911 35.8484C1.44679 35.8386 1.43487 35.8288 1.42255 35.819C1.31815 35.7352 1.21672 35.6509 1.11827 35.5661C1.10229 35.5525 1.08604 35.5388 1.0702 35.525C0.964437 35.4328 0.861656 35.34 0.762937 35.2465C0.748583 35.233 0.735177 35.2194 0.720958 35.2057C0.639167 35.1274 0.560083 35.0485 0.483302 34.9693C0.45974 34.9451 0.436177 34.9206 0.413021 34.8962C0.325812 34.8041 0.240906 34.7117 0.160604 34.6186C0.160604 34.6186 0.160333 34.6184 0.160198 34.6181C0.0556562 33.5924 0 32.5525 0 31.5C0 46.5848 10.941 59.1907 25.5506 62.2758C21.6872 61.4579 18.0822 59.9722 14.8666 57.9528C14.8459 57.9398 14.8251 57.9268 14.8046 57.9138ZM20.5833 51.45C21.8924 52.1938 22.8177 53.0906 22.75 54.6C22.6823 56.1094 16.4531 53.025 16.25 51.45C16.0469 49.875 18.9302 50.5106 20.5833 51.45Z" fill="#FF9300"/>
<path d="M30.1394 0.0828668C30.2947 0.071973 30.4503 0.0622605 30.6063 0.0534668C30.4505 0.0622605 30.2949 0.0721043 30.1394 0.0828668Z" fill="#FF9300"/>
<path d="M32.5 0C32.3092 0 32.1188 0.00193015 31.9287 0.00501838C31.9555 0.00463235 31.9825 0.00476103 32.0094 0.00424632C32.1726 0.00154412 32.3362 0 32.5 0Z" fill="#FF9300"/>
<path d="M60.2404 15.0958C60.2427 15.0954 60.2451 15.0949 60.2474 15.0945C60.0744 14.8202 59.897 14.5487 59.7157 14.2799C59.7008 14.2578 59.6856 14.2357 59.6706 14.2137C59.5207 13.9926 59.3674 13.7738 59.2119 13.5569C59.5705 14.0588 59.9117 14.573 60.2404 15.0958Z" fill="#FF9300"/>
<path d="M47.0339 3.32631C47.0491 3.33366 47.0643 3.34088 47.0794 3.34823C47.188 3.40126 47.2961 3.45494 47.4039 3.50901C47.4826 3.54839 47.5611 3.5879 47.6394 3.6278C47.6946 3.65601 47.7497 3.6845 47.8047 3.71311C47.9364 3.78123 48.0673 3.85013 48.1978 3.91996C48.2127 3.92796 48.2276 3.93597 48.2425 3.94398C48.3173 3.98414 48.3926 4.02365 48.4669 4.06446C48.4933 4.0789 48.5209 4.09137 48.5473 4.10594C49.2108 4.47186 49.859 4.8605 50.4922 5.26934C50.5007 5.27485 50.5089 5.28102 50.5174 5.28653C49.5937 5.3267 48.6806 5.40571 47.7786 5.51924C47.1087 5.63382 46.4262 5.74105 45.7314 5.8408C38.2098 7.26552 31.6193 11.2059 26.9246 16.7193C26.9259 16.7193 26.9274 16.7195 26.9288 16.7196C26.9285 16.72 26.9282 16.7202 26.9278 16.7206C28.7404 16.8217 30.6014 16.875 32.4999 16.875C34.852 16.875 37.1477 16.7944 39.3637 16.641C39.787 16.6117 40.2073 16.5797 40.6247 16.5452L44.584 16.1283C50.1083 15.418 54.9178 14.2311 58.594 12.7234C58.472 12.5643 58.3488 12.4061 58.2238 12.2492C58.2195 12.2438 58.2153 12.2383 58.211 12.2329C58.1113 12.1083 58.0107 11.9844 57.9092 11.8612C57.8946 11.8435 57.8799 11.8259 57.8654 11.8083C57.6751 11.5785 57.4817 11.3512 57.2851 11.1268C57.2681 11.1072 57.2511 11.0877 57.2339 11.0681C57.1309 10.951 57.027 10.8346 56.9222 10.7191C56.908 10.7034 56.8935 10.6879 56.8793 10.6722C56.684 10.4577 56.4857 10.2459 56.2847 10.0366C56.2565 10.0073 56.2285 9.9778 56.2002 9.94867C56.0948 9.83973 55.9888 9.73145 55.8818 9.62408C55.8685 9.6107 55.855 9.59757 55.8417 9.58432C55.6398 9.38232 55.4349 9.18308 55.2276 8.98634C55.1889 8.94959 55.1501 8.91271 55.1111 8.87609C55.0048 8.77634 54.8981 8.67685 54.7905 8.57855C54.7773 8.56647 54.7639 8.55479 54.7508 8.54285C54.5424 8.35306 54.3313 8.16616 54.1179 7.98162C54.0679 7.93844 54.0179 7.89539 53.9677 7.85247C53.8619 7.76217 53.7559 7.672 53.6488 7.58315C53.6433 7.57868 53.6379 7.57422 53.6325 7.56976C53.4102 7.38509 53.1848 7.2037 52.9575 7.02494C52.8954 6.97625 52.8333 6.92768 52.771 6.87938C52.6112 6.75562 52.4499 6.63342 52.2877 6.51254C52.2096 6.45427 52.1317 6.39573 52.053 6.33824C51.9517 6.26422 51.8496 6.19124 51.7474 6.11827C51.6729 6.06511 51.5982 6.01235 51.5231 5.95985C51.3912 5.86732 51.2587 5.77583 51.1253 5.68514C51.0123 5.60849 50.8991 5.53197 50.7851 5.45663C50.6877 5.39219 50.5896 5.3288 50.4914 5.2654C50.4024 5.20792 50.313 5.15108 50.2234 5.09451C50.0981 5.01537 49.9723 4.93688 49.846 4.85931C49.722 4.78319 49.5975 4.70759 49.4722 4.63317C49.3788 4.57752 49.2847 4.52266 49.1906 4.46793C49.0847 4.40637 48.9782 4.3456 48.8715 4.2851C48.7541 4.21855 48.6365 4.15266 48.5181 4.08756C48.3844 4.01406 48.2504 3.94122 48.1156 3.86943C48.0263 3.82191 47.9366 3.77493 47.8467 3.72807C47.7204 3.66231 47.5933 3.59761 47.466 3.53343C47.36 3.48001 47.2536 3.42698 47.1469 3.37461C47.0041 3.30466 46.861 3.23562 46.7171 3.16763C46.6324 3.12773 46.5477 3.0881 46.4626 3.04872C46.3095 2.97798 46.1555 2.90828 46.001 2.83977C45.912 2.8004 45.8228 2.76141 45.7335 2.72283C45.5825 2.65746 45.4309 2.59315 45.2787 2.52989C45.199 2.49681 45.1193 2.464 45.0394 2.43145C44.8457 2.35283 44.6514 2.2754 44.4559 2.20045C44.399 2.17853 44.3414 2.15766 44.2843 2.13614C44.1241 2.07576 43.9634 2.01644 43.8021 1.95843C43.7279 1.93178 43.6538 1.90514 43.5793 1.87889C43.3767 1.80775 43.1733 1.73793 42.969 1.67046C42.912 1.6517 42.8544 1.63371 42.7973 1.61521C42.6284 1.56061 42.459 1.50719 42.2889 1.45521C42.2208 1.43435 42.1528 1.41348 42.0846 1.393C41.8733 1.32987 41.6614 1.26858 41.4484 1.20965C41.3917 1.1939 41.3345 1.17893 41.2776 1.16358C41.0994 1.11528 40.9207 1.06829 40.7411 1.02288C40.6798 1.00726 40.6184 0.991377 40.557 0.976283C40.3379 0.922077 40.1179 0.869971 39.8972 0.820227C39.8403 0.807365 39.7832 0.795158 39.7262 0.782689C39.5381 0.741346 39.3494 0.701446 39.1601 0.663252C39.1062 0.652358 39.0525 0.641071 38.9984 0.630439C38.7723 0.585946 38.5453 0.543946 38.3176 0.504046C38.26 0.493939 38.2022 0.484489 38.1445 0.474646C37.9459 0.440914 37.7467 0.408889 37.5466 0.378702C37.5015 0.371877 37.4565 0.364527 37.4112 0.357964C37.1786 0.323708 36.945 0.292339 36.7107 0.262939C40.3797 0.724152 43.8549 1.78085 47.0339 3.32631Z" fill="#FF9300"/>
<path d="M59.2096 13.5534C59.0881 13.3838 58.9655 13.2151 58.8407 13.0481C58.8265 13.0289 58.8121 13.01 58.7978 12.991C58.7408 12.915 58.6829 12.8396 58.6252 12.7642C58.824 13.0242 59.0192 13.2871 59.2096 13.5534Z" fill="#FF9300"/>
<path d="M34.2495 0.0452924C34.2395 0.0447777 34.2295 0.0441343 34.2194 0.0436196C34.1995 0.0425902 34.1798 0.0413034 34.1599 0.0404027C34.0628 0.0357703 33.9654 0.0324247 33.8682 0.0285645C33.9955 0.0335828 34.1226 0.0388586 34.2495 0.0452924Z" fill="#FF9300"/>
<path d="M35.4335 0.127557C35.3156 0.11732 35.1977 0.107607 35.0795 0.0985512C35.0609 0.0971074 35.0422 0.0959262 35.0237 0.0944824C35.1605 0.104851 35.2971 0.115745 35.4335 0.127557Z" fill="#FF9300"/>
<path d="M36.6979 0.261166C36.644 0.254472 36.59 0.248041 36.536 0.24161C36.4083 0.226254 36.2804 0.211422 36.1523 0.19751C36.3346 0.217329 36.5166 0.23846 36.6979 0.261166Z" fill="#FF9300"/>
<path d="M36.0455 0.186376C35.9969 0.181257 35.9482 0.176007 35.8996 0.17102C35.8657 0.167607 35.8319 0.16367 35.798 0.160389C35.7287 0.153564 35.6591 0.147789 35.5896 0.141357C35.7419 0.155401 35.8939 0.170364 36.0455 0.186376Z" fill="#FF9300"/>
<path d="M33.6654 0.0202016C33.5855 0.0174994 33.5054 0.0155693 33.4252 0.0133818C33.371 0.0119663 33.3169 0.0106796 33.2627 0.00952148C33.3972 0.0126097 33.5315 0.015698 33.6654 0.0202016Z" fill="#FF9300"/>
<path d="M31.7604 0.0090332C31.757 0.0090332 31.7536 0.00916188 31.7503 0.00929056C31.6981 0.0104486 31.646 0.0114781 31.5939 0.0127648C31.5134 0.0148236 31.4328 0.0171398 31.3525 0.019842C31.4882 0.0153383 31.6242 0.0119928 31.7604 0.0090332Z" fill="#FF9300"/>
<path d="M31.171 0.0268555C31.0711 0.0307158 30.9712 0.0344474 30.8715 0.0390797C30.8313 0.0410099 30.7911 0.0431974 30.751 0.0452562C30.8907 0.038179 31.0309 0.0321312 31.171 0.0268555Z" fill="#FF9300"/>
<path d="M32.5001 0C32.3363 0 32.1727 0.00154412 32.0095 0.00424632C32.1728 0.00205882 32.3363 0 32.5001 0Z" fill="#FF7400"/>
<path d="M48.1978 3.91998C48.0673 3.85016 47.9363 3.78125 47.8047 3.71313C47.9362 3.78138 48.0674 3.85003 48.1978 3.91998Z" fill="#FF7400"/>
<path d="M50.5174 5.2864C50.5088 5.28089 50.5007 5.27472 50.4922 5.26921C49.859 4.86037 49.2107 4.47174 48.5473 4.10581C48.5209 4.09124 48.4933 4.07877 48.4669 4.06434C48.3924 4.02352 48.3173 3.98401 48.2425 3.94385C48.9005 4.29796 49.5445 4.67347 50.1735 5.06945C49.3963 5.2301 48.5958 5.37933 47.7786 5.51911C48.6804 5.40558 49.5937 5.32657 50.5174 5.2864Z" fill="#FF7400"/>
<path d="M47.0794 3.34809C47.0643 3.34074 47.0491 3.33339 47.0339 3.32617C47.0491 3.33352 47.0643 3.34074 47.0794 3.34809Z" fill="#FF7400"/>
<path d="M47.6393 3.62781C47.561 3.58791 47.4825 3.54841 47.4038 3.50903C47.4825 3.54854 47.561 3.58778 47.6393 3.62781Z" fill="#FF7400"/>
<path d="M7.11995 13.0117C7.24616 13.0602 7.37318 13.1083 7.50183 13.156C7.57292 13.1823 7.64469 13.2085 7.71647 13.2346C7.83726 13.2786 7.95927 13.3221 8.08209 13.3653C8.15657 13.3916 8.23078 13.4178 8.30593 13.4438C8.43702 13.4891 8.56973 13.5338 8.70298 13.5783C8.76974 13.6006 8.83555 13.6232 8.90285 13.6453C9.09379 13.708 9.28703 13.7701 9.48243 13.8312C9.56585 13.8574 9.65089 13.883 9.73499 13.9088C9.85402 13.9454 9.97318 13.9819 10.0938 14.018C10.1976 14.049 10.3024 14.0794 10.4072 14.11C10.5092 14.1397 10.6117 14.1692 10.7147 14.1986C10.8292 14.2312 10.944 14.2635 11.0596 14.2955C11.1517 14.3209 11.2446 14.346 11.3376 14.3712C11.4637 14.4053 11.5897 14.4395 11.7172 14.4729C11.7818 14.4899 11.8475 14.5064 11.9125 14.5233C12.4191 14.6544 12.9369 14.781 13.466 14.9024C13.5126 14.9131 13.5589 14.9239 13.6057 14.9345C13.7793 14.9739 13.9542 15.0128 14.1301 15.0512C14.1718 15.0603 14.2135 15.0693 14.2553 15.0784C14.4441 15.1192 14.6338 15.1595 14.8252 15.199C14.8273 15.1994 14.8294 15.1999 14.8315 15.2003C18.462 15.95 22.5507 16.4755 26.9248 16.7194C31.6195 11.206 38.21 7.2656 45.7316 5.84088C41.6702 6.42402 37.2015 6.75005 32.5002 6.75005C26.0188 6.75005 19.9752 6.13317 14.839 5.07228C16.9928 3.71646 19.3218 2.60045 21.7856 1.76294C21.4927 1.86151 21.2008 1.96257 20.9121 2.06954C20.7457 2.1311 20.5806 2.19515 20.4156 2.2592C19.9923 2.42378 19.5733 2.5969 19.159 2.77816C19.0174 2.84011 18.8748 2.90048 18.7342 2.96427C18.2153 3.2 17.7026 3.44635 17.1992 3.70754C17.1757 3.71961 17.1515 3.73051 17.1282 3.74271C16.5703 4.03383 16.0222 4.34082 15.4845 4.66199C15.4419 4.68745 15.4004 4.71488 15.3579 4.74061C14.8837 5.02686 14.418 5.3252 13.9604 5.63403C13.8624 5.70018 13.7657 5.76803 13.6684 5.83523C13.2532 6.12215 12.8451 6.41785 12.4447 6.72288C12.36 6.78732 12.2749 6.85098 12.1909 6.91608C10.7368 8.04666 9.38439 9.29472 8.15075 10.6473C8.10362 10.699 8.05772 10.7516 8.01086 10.8037C7.64727 11.2076 7.29424 11.6206 6.95204 12.0423C6.90126 12.1049 6.8502 12.1671 6.79983 12.23C6.66766 12.3954 6.53875 12.5635 6.40942 12.7311C6.58479 12.8029 6.76327 12.8739 6.94378 12.9443C7.00187 12.9668 7.06118 12.9891 7.11995 13.0117Z" fill="#FF7400"/>
<path d="M24.5788 0.94667C24.5302 0.958483 24.4803 0.967539 24.4317 0.979483C23.8306 1.12845 23.2371 1.29606 22.6498 1.47705C22.5118 1.51958 22.3764 1.56748 22.2392 1.61171C22.2257 1.61605 22.2124 1.62077 22.199 1.6251C23.0241 1.35683 23.8638 1.1194 24.7169 0.915039C24.6711 0.925933 24.6247 0.935514 24.5788 0.94667Z" fill="#FF7400"/>
<path d="M60.8893 16.1678C60.6806 15.8057 60.4629 15.4493 60.2406 15.0959C59.912 14.5732 59.5707 14.0589 59.2122 13.5568C59.2113 13.5557 59.2105 13.5545 59.2096 13.5533C59.0192 13.287 58.8241 13.0242 58.6253 12.7641C58.615 12.7506 58.6054 12.7367 58.5949 12.7231C58.5949 12.7231 58.5945 12.7233 58.5943 12.7234C54.918 14.2311 50.1085 15.418 44.5842 16.1283L40.6249 16.5451C40.2075 16.5798 39.7872 16.6117 39.3639 16.641C37.1479 16.7944 34.8522 16.875 32.5001 16.875C30.6016 16.875 28.7407 16.8217 26.928 16.7206C25.7877 18.0595 24.7566 19.4884 23.8542 20.9999C23.8241 20.9973 23.7945 20.9943 23.7644 20.9916C23.7935 20.9943 23.8221 20.9971 23.8512 20.9998C26.6109 21.2446 29.5097 21.375 32.5001 21.375C44.4343 21.375 54.9121 19.298 60.8893 16.1678Z" fill="#FFEDB9"/>
<path d="M5.92436 17.0261C5.91613 17.0226 5.90776 17.0191 5.89966 17.0156C5.90776 17.0193 5.91613 17.0226 5.92436 17.0261Z" fill="#FFEDB9"/>
<path d="M5.34801 16.7707C5.29181 16.7451 5.23656 16.7192 5.18091 16.6934C5.23643 16.7192 5.29168 16.7451 5.34801 16.7707Z" fill="#FFEDB9"/>
<path d="M17.1018 20.1299C17.0011 20.1126 16.9013 20.0947 16.8013 20.0771C16.9012 20.0949 17.001 20.1126 17.1018 20.1299Z" fill="#FFEDB9"/>
<path d="M16.2546 19.9783C16.1559 19.9601 16.0569 19.942 15.9587 19.9233C16.0569 19.942 16.1558 19.9601 16.2546 19.9783Z" fill="#FFEDB9"/>
<path d="M4.11084 16.1677C4.11376 16.1693 4.11708 16.1708 4.12013 16.1724C4.11708 16.1708 4.11389 16.1693 4.11084 16.1677Z" fill="#FFEDB9"/>
<path d="M8.77991 18.1032C8.70963 18.0798 8.63908 18.0566 8.56934 18.033C8.63908 18.0565 8.70963 18.0797 8.77991 18.1032Z" fill="#FFEDB9"/>
<path d="M9.4715 18.3271C9.39891 18.3042 9.32728 18.2813 9.25537 18.2583C9.32741 18.2811 9.39905 18.3042 9.4715 18.3271Z" fill="#FFEDB9"/>
<path d="M11.0891 18.8028C11.0096 18.7809 10.9299 18.759 10.8511 18.7368C10.9299 18.759 11.0096 18.7808 11.0891 18.8028Z" fill="#FFEDB9"/>
<path d="M4.78704 16.5067C4.73301 16.4806 4.67871 16.4545 4.62549 16.4282C4.67884 16.4545 4.73301 16.4805 4.78704 16.5067Z" fill="#FFEDB9"/>
<path d="M5.11996 14.539C5.17102 14.4616 5.22166 14.3839 5.27353 14.3069C5.63279 13.7715 6.00532 13.2452 6.39762 12.7336C6.39911 12.7317 6.40033 12.7298 6.40168 12.7279C6.57949 12.8008 6.76054 12.8727 6.94362 12.944C6.76311 12.8736 6.58463 12.8027 6.40927 12.7308C6.40669 12.7298 6.40412 12.7288 6.40155 12.7278C5.56291 13.8212 4.79998 14.9715 4.11084 16.1675C4.11111 16.1671 4.11165 16.1663 4.11165 16.1663C4.43069 15.6132 4.76924 15.0718 5.11996 14.539Z" fill="#FFEDB9"/>
<path d="M9.48242 13.8315C9.28701 13.7702 9.09377 13.7082 8.90283 13.6455C9.0939 13.7082 9.28701 13.7703 9.48242 13.8315Z" fill="#FFEDB9"/>
<path d="M8.08218 13.3653C7.95935 13.322 7.83734 13.2785 7.71655 13.2346C7.83721 13.2785 7.95922 13.322 8.08218 13.3653Z" fill="#FFEDB9"/>
<path d="M10.715 14.1985C10.612 14.1692 10.5094 14.1397 10.4075 14.1099C10.5094 14.1397 10.6118 14.1692 10.715 14.1985Z" fill="#FFEDB9"/>
<path d="M11.3376 14.3711C11.2447 14.3459 11.1517 14.3209 11.0596 14.2954C11.1518 14.3209 11.2447 14.3461 11.3376 14.3711Z" fill="#FFEDB9"/>
<path d="M24.7172 0.915075C23.864 1.11943 23.0244 1.35673 22.1993 1.62514C22.061 1.67016 21.9232 1.71609 21.7857 1.76282C19.3219 2.60032 16.9929 3.71634 14.8391 5.07216C19.9752 6.13305 26.0188 6.74992 32.5002 6.74992C37.2015 6.74992 41.6702 6.4239 45.7316 5.84076C46.4263 5.74101 47.1089 5.63364 47.7788 5.51919C48.596 5.37941 49.3965 5.23031 50.1738 5.06953C49.5448 4.67355 48.9006 4.29804 48.2427 3.94393C48.2279 3.93592 48.213 3.92792 48.1981 3.91991C48.0677 3.84996 47.9364 3.78131 47.8049 3.71306C47.75 3.68445 47.6949 3.65597 47.6396 3.62775C47.5613 3.58772 47.4828 3.54847 47.4041 3.50897C47.2963 3.45489 47.1883 3.40108 47.0797 3.34819C47.0645 3.34084 47.0493 3.33362 47.0342 3.32627C43.8551 1.78093 40.3799 0.724237 36.7112 0.262894C36.7109 0.262894 36.7108 0.262894 36.7105 0.262763C36.7065 0.262238 36.7024 0.261844 36.6983 0.261319C36.517 0.238612 36.335 0.217481 36.1526 0.197662C36.1171 0.193856 36.0815 0.190312 36.046 0.186506C35.8944 0.170494 35.7424 0.155531 35.5901 0.141487C35.538 0.136762 35.486 0.132169 35.4338 0.127706C35.2975 0.115894 35.1608 0.104869 35.024 0.0946312C35.0009 0.092925 34.9779 0.0906937 34.9547 0.0891187C34.9159 0.0863625 34.8767 0.0838687 34.8377 0.0812437C34.7092 0.0723187 34.5804 0.0644437 34.4515 0.0570937C34.3843 0.0532875 34.3172 0.0492187 34.2499 0.0458062C34.123 0.0392437 33.9958 0.0338625 33.8685 0.0287437C33.801 0.0259875 33.7334 0.0229687 33.6657 0.0206062C33.5318 0.0160125 33.3974 0.0127312 33.2631 0.0097125C33.2585 0.00958125 33.254 0.00945 33.2494 0.00931875C33.1938 0.00800625 33.1382 0.0063 33.0826 0.00525C32.8887 0.0018375 32.6946 0 32.5002 0C32.3363 0 32.1729 0.0021 32.0095 0.00433125C31.9827 0.004725 31.9558 0.00459375 31.9288 0.00511875C31.8726 0.0060375 31.8167 0.00774375 31.7606 0.008925C31.6245 0.0118125 31.4885 0.0153562 31.3528 0.0198187C31.2922 0.0219187 31.2318 0.0244125 31.1714 0.026775C31.0312 0.0322875 30.8911 0.038325 30.7514 0.045675C30.7032 0.0481687 30.6548 0.0507937 30.6066 0.0534187C30.4508 0.0622125 30.295 0.071925 30.1397 0.0828187C30.1136 0.0846562 30.0874 0.0862312 30.0614 0.0880687C28.2332 0.220369 26.4478 0.500587 24.7172 0.915075Z" fill="#D55A00"/>
<path d="M38.1533 29.092L39.3208 30.761C39.9026 31.5926 39.1572 32.6778 38.1367 32.5006C34.3199 31.8381 30.28 29.302 24.0999 28.8961L24.1001 28.897C22.9154 28.7953 21.7574 28.6715 20.6272 28.5291C19.9687 30.8949 19.5817 33.3687 19.5122 35.9199C19.5151 35.9203 19.5179 35.9207 19.5207 35.9211C19.5207 35.9222 19.5207 35.9232 19.5206 35.9243C23.5468 36.4445 27.9224 36.7301 32.4996 36.7301C46.7752 36.7301 59.0963 33.955 64.9391 29.9331C64.966 30.4539 64.9999 30.9729 64.9999 31.5001C64.9999 31.2578 64.9961 31.0163 64.9904 30.7753C64.9886 30.6996 64.9862 30.624 64.9838 30.5484C64.9785 30.378 64.9718 30.2081 64.9637 30.0385C64.9598 29.9567 64.9564 29.8748 64.9518 29.7933C64.9398 29.5753 64.9258 29.3577 64.9091 29.1407C64.9013 29.0397 64.892 28.9391 64.8832 28.8385C64.8718 28.7076 64.8603 28.5768 64.8473 28.4464C64.8344 28.3181 64.8207 28.1898 64.8064 28.0619C64.7965 27.9741 64.7859 27.8865 64.7754 27.799C64.5464 25.9134 64.1463 24.0786 63.5903 22.3096C59.2245 25.8235 49.692 28.4399 38.1533 29.092Z" fill="#FF9300"/>
<path d="M0.0820625 29.3712C0.0938437 29.2007 0.107521 29.0309 0.122146 28.8612C0.181458 28.1721 0.255667 27.4872 0.360073 26.8116C0.361021 26.8049 0.361698 26.7981 0.362781 26.7915C0.474094 26.075 0.615198 25.3682 0.775396 24.6683C0.800312 24.5589 0.827125 24.4503 0.85326 24.3414C1.0182 23.6557 1.20006 22.9759 1.40996 22.308C4.96085 25.1669 11.932 27.4298 20.6207 28.5264C21.3627 25.8607 22.4566 23.3355 23.8512 20.9997C23.8221 20.9971 23.7935 20.9942 23.7644 20.9916C23.4976 20.9677 23.2322 20.9426 22.9682 20.9165C22.8535 20.9052 22.7394 20.8934 22.6253 20.8817C22.4299 20.8616 22.2351 20.8411 22.0412 20.8199C21.9269 20.8074 21.8126 20.7951 21.699 20.7821C21.4602 20.755 21.2228 20.7271 20.9863 20.6982C20.9025 20.688 20.8185 20.6779 20.735 20.6675C20.4774 20.6353 20.2216 20.6021 19.9672 20.568C19.8591 20.5534 19.7517 20.5385 19.6442 20.5236C19.4548 20.4974 19.2663 20.4708 19.0786 20.4433C18.9712 20.4277 18.8637 20.4121 18.757 20.3961C18.5238 20.3612 18.2921 20.3253 18.0617 20.2886C17.9885 20.2769 17.9151 20.2653 17.8421 20.2535C17.5936 20.2132 17.3471 20.1719 17.102 20.1296C17.0014 20.1123 16.9016 20.0945 16.8016 20.0769C16.6183 20.0445 16.4361 20.0116 16.2549 19.9782C16.1562 19.9599 16.0572 19.9418 15.959 19.9232C15.7296 19.8797 15.5018 19.8356 15.2757 19.7905C15.2189 19.7792 15.1621 19.7679 15.1056 19.7565C14.8636 19.7075 14.6241 19.6574 14.3861 19.6066C14.2954 19.5872 14.2055 19.5674 14.1153 19.5477C13.9378 19.509 13.7616 19.4696 13.5864 19.4297C13.497 19.4093 13.4073 19.389 13.3185 19.3684C13.0944 19.3163 12.872 19.2634 12.652 19.2096C12.6111 19.1996 12.5701 19.1898 12.5293 19.1796C12.2965 19.1222 12.0664 19.0635 11.8383 19.004C11.7565 18.9826 11.6755 18.961 11.5942 18.9395C11.4246 18.8944 11.2562 18.8489 11.0893 18.8027C11.0098 18.7808 10.93 18.7589 10.8512 18.7367C10.6339 18.6755 10.4183 18.6136 10.2057 18.5507C10.1802 18.5431 10.1545 18.5357 10.129 18.5281C9.90708 18.4621 9.68852 18.3948 9.47185 18.3268C9.39927 18.3039 9.32763 18.281 9.25573 18.258C9.09567 18.2068 8.93709 18.1552 8.78001 18.103C8.70973 18.0796 8.63918 18.0564 8.56944 18.0328C8.36293 17.963 8.15845 17.8925 7.95749 17.8208C7.94327 17.8157 7.92878 17.8107 7.91456 17.8057C7.70751 17.7317 7.50438 17.6565 7.30343 17.5806C7.23924 17.5565 7.17613 17.5319 7.11249 17.5075C6.96488 17.4508 6.81891 17.3936 6.67469 17.336C6.6128 17.3112 6.55051 17.2865 6.4893 17.2616C6.29823 17.1839 6.10946 17.1055 5.92461 17.0261C5.91635 17.0226 5.90796 17.019 5.89983 17.0155C5.71228 16.9347 5.52906 16.8528 5.34801 16.7703C5.29181 16.7447 5.23656 16.7188 5.18091 16.693C5.04779 16.6313 4.91657 16.5691 4.78711 16.5063C4.73308 16.4802 4.67878 16.4541 4.62556 16.4279C4.45412 16.3433 4.28512 16.2583 4.12046 16.1722C4.11734 16.1706 4.11409 16.169 4.11098 16.1675C4.79998 14.9715 5.56305 13.8211 6.40169 12.7278C6.40426 12.7288 6.40683 12.7299 6.40941 12.7308C6.53859 12.5631 6.66751 12.3951 6.79981 12.2297C6.85019 12.1668 6.90137 12.1045 6.95202 12.042C7.29435 11.6204 7.64725 11.2074 8.01084 10.8034C8.0577 10.7514 8.1036 10.6987 8.15073 10.647C9.38437 9.29429 10.7369 8.04637 12.1909 6.91578C12.2748 6.85055 12.36 6.78702 12.4447 6.72258C12.8451 6.41755 13.2532 6.12185 13.6684 5.83494C13.7656 5.76774 13.8623 5.69988 13.9604 5.63373C14.4179 5.3249 14.8835 5.02657 15.3579 4.74031C15.4004 4.71459 15.4418 4.68715 15.4845 4.66169C16.0222 4.34052 16.5703 4.03353 17.1282 3.74242C17.1515 3.73021 17.1758 3.71932 17.1991 3.70724C17.7026 3.44618 18.2153 3.1997 18.7342 2.96397C18.8749 2.90018 19.0174 2.83981 19.159 2.77786C19.5734 2.5966 19.9922 2.42362 20.4156 2.2589C20.5806 2.19472 20.7457 2.1308 20.9121 2.06924C21.201 1.96227 21.4927 1.86134 21.7856 1.76264C21.923 1.71592 22.0609 1.66985 22.1991 1.62496C22.2125 1.62063 22.2259 1.6159 22.2393 1.61157C22.3765 1.56734 22.5119 1.51943 22.6499 1.47691C23.2372 1.29605 23.8306 1.12831 24.4319 0.979341C24.4805 0.967266 24.5303 0.958341 24.5789 0.946528C24.6247 0.935372 24.6712 0.925922 24.7172 0.914897C26.4478 0.500409 28.2332 0.220191 30.0613 0.0878906C30.03 0.0901219 29.9986 0.0920906 29.9673 0.0944531C29.7306 0.112172 29.4948 0.132778 29.2597 0.155353C29.2015 0.160866 29.1434 0.166772 29.0853 0.172678C28.8509 0.196434 28.6171 0.221897 28.3841 0.250378C28.3508 0.254447 28.3178 0.259041 28.2846 0.263241C28.0765 0.289359 27.869 0.317709 27.6621 0.347634C27.6017 0.356428 27.5412 0.364959 27.4809 0.374016C27.2602 0.407222 27.0403 0.442528 26.821 0.479934C26.7554 0.491091 26.6899 0.503034 26.6244 0.514584C26.4383 0.547528 26.2527 0.581916 26.0677 0.617878C26.016 0.627984 25.964 0.637434 25.9124 0.647672C25.7022 0.689672 25.493 0.734297 25.2843 0.780234C25.2044 0.797822 25.1247 0.815541 25.045 0.833653C24.8435 0.879459 24.6427 0.926578 24.4427 0.976059C24.3651 0.995222 24.2879 1.01557 24.2106 1.03525C24.0656 1.07227 23.9211 1.1102 23.7769 1.14905C23.6888 1.1728 23.6005 1.19617 23.5128 1.22071C23.3288 1.2719 23.1456 1.32492 22.9629 1.37926C22.8619 1.40932 22.7611 1.44016 22.6606 1.471C22.5417 1.50762 22.4231 1.54503 22.3047 1.58296C22.1448 1.63415 21.9856 1.68652 21.8267 1.74007C21.7249 1.77432 21.6232 1.80884 21.5219 1.84415C21.4052 1.8847 21.2887 1.92565 21.1727 1.96752C21.0842 1.99942 20.9962 2.03236 20.9081 2.06491C20.7122 2.13736 20.5174 2.21152 20.3235 2.28751C20.2604 2.31232 20.1973 2.33725 20.1344 2.36245C19.8731 2.4668 19.6133 2.57416 19.3554 2.6848C19.3459 2.68887 19.3363 2.69281 19.3267 2.69701C19.1819 2.75935 19.0377 2.82275 18.894 2.88706C18.8822 2.89231 18.8704 2.89782 18.8587 2.90307C18.5739 3.03091 18.2914 3.16268 18.0112 3.29813C18.008 3.29971 18.0047 3.30128 18.0015 3.30286C8.41276 7.94373 1.52411 17.042 0.224656 27.7975C0.213958 27.8856 0.203396 27.9737 0.19351 28.062C0.179292 28.1897 0.165344 28.3174 0.152615 28.4456C0.139615 28.5766 0.127969 28.708 0.116594 28.8394C0.107927 28.9395 0.0984479 29.0394 0.0907292 29.1397C0.0740729 29.3568 0.060125 29.5746 0.0480729 29.7929C0.0436042 29.8746 0.0400833 29.9565 0.0361562 30.0382C0.0280312 30.2078 0.0213958 30.3778 0.01625 30.5481C0.0139479 30.6237 0.011375 30.6992 0.00961458 30.7751C0.00379167 31.016 0 31.2575 0 31.5C0 30.7837 0.0333125 30.0754 0.0820625 29.3712Z" fill="#FF9300"/>
<path d="M32.4999 36.73C27.9227 36.73 23.547 36.4443 19.5209 35.9241C19.5135 36.1992 19.4999 36.473 19.4999 36.75C19.4999 38.517 19.6651 40.245 19.9538 41.9328C11.6207 40.8114 4.93261 38.6128 1.4585 35.8488C4.92977 38.6141 11.608 40.8181 19.9399 41.9396C23.8205 42.462 28.0589 42.7501 32.4998 42.7501C47.8514 42.7501 60.7933 39.3141 64.84 34.6185C64.9441 33.5924 64.9998 32.5526 64.9998 31.5001C64.9998 30.9729 64.9659 30.4539 64.9394 29.9331C59.0966 33.9547 46.7756 36.73 32.4999 36.73Z" fill="#FF7400"/>
<path d="M0.159792 34.6185C0.158979 34.6102 0.158573 34.602 0.15776 34.5937C0.106979 34.0894 0.0674375 33.582 0.0408958 33.0711C0.014625 32.5505 0 32.027 0 31.5C0 32.5525 0.0556562 33.5924 0.159792 34.6185V34.6185Z" fill="#FF7400"/>
<path d="M0.412573 34.8965C0.325365 34.8044 0.240458 34.712 0.160156 34.6189C0.240458 34.712 0.3255 34.8045 0.412573 34.8965Z" fill="#FF7400"/>
<path d="M59.047 49.6603C61.1208 46.8179 62.7191 43.6295 63.7343 40.1997C60.6083 42.7943 54.6744 44.91 47.1881 46.1253L42.9466 46.6976C39.6579 47.0562 36.1465 47.2501 32.4999 47.2501C28.5058 47.2501 24.6742 47.0175 21.1196 46.5908C21.6509 48.1567 22.3167 49.662 23.0834 51.1088C22.5032 50.8352 21.9301 50.5627 21.365 50.3014C21.9232 50.5595 22.4894 50.8287 23.0623 51.099C26.0553 52.5107 29.2396 53.9522 32.4999 54.0001C43.2906 54.1585 52.8872 52.2999 59.047 49.6603Z" fill="#FFEDB9"/>
<path d="M19.213 49.3664C19.1662 49.3479 19.1195 49.3296 19.0728 49.3115C19.1195 49.3296 19.1662 49.3477 19.213 49.3664Z" fill="#FFEDB9"/>
<path d="M18.958 49.2669C18.9124 49.2495 18.8669 49.2324 18.8215 49.2153C18.867 49.2325 18.9124 49.2496 18.958 49.2669Z" fill="#FFEDB9"/>
<path d="M17.2149 48.6962C17.1744 48.6856 17.1342 48.6758 17.094 48.6655C17.1343 48.6758 17.1746 48.6857 17.2149 48.6962Z" fill="#FFEDB9"/>
<path d="M17.7054 48.835C17.6638 48.8224 17.6225 48.8104 17.5811 48.7983C17.6225 48.8104 17.6639 48.8224 17.7054 48.835Z" fill="#FFEDB9"/>
<path d="M15.0893 48.3748C15.1658 48.3762 15.2426 48.379 15.3195 48.3831C15.2424 48.3791 15.1658 48.3762 15.0893 48.3748Z" fill="#FFEDB9"/>
<path d="M2.34863 41.0061C2.36502 41.0171 2.38167 41.028 2.3982 41.0389C2.38181 41.028 2.36502 41.0171 2.34863 41.0061Z" fill="#FFEDB9"/>
<path d="M1.26636 40.2024C2.28212 43.6329 3.88112 46.8217 5.95584 49.6645C7.57623 50.3584 9.43361 50.9872 11.4875 51.5375C9.43361 50.9872 7.57623 50.3583 5.95584 49.6643C3.88125 46.8217 2.28212 43.6329 1.26636 40.2024Z" fill="#FFEDB9"/>
<path d="M16.0187 48.451C15.9747 48.445 15.9311 48.44 15.8872 48.4346C15.9309 48.4398 15.9747 48.4449 16.0187 48.451Z" fill="#FFEDB9"/>
<path d="M15.7838 48.4214C15.7357 48.4161 15.6879 48.412 15.6401 48.4075C15.6881 48.4118 15.7357 48.416 15.7838 48.4214Z" fill="#FFEDB9"/>
<path d="M14.2665 48.7849C14.2297 48.8528 14.2 48.9265 14.1785 49.007C14.1999 48.9267 14.2297 48.8528 14.2665 48.7849Z" fill="#FFEDB9"/>
<path d="M15.5513 48.3988C15.4953 48.3943 15.4397 48.3909 15.384 48.3877C15.4396 48.3909 15.4952 48.3943 15.5513 48.3988Z" fill="#FFEDB9"/>
<path d="M34.052 62.9634C34.1561 62.9587 34.26 62.9529 34.3638 62.9473C34.5162 62.9389 34.6684 62.9297 34.8202 62.9192C34.9315 62.9116 35.0427 62.9037 35.1537 62.8949C35.2965 62.8838 35.4386 62.8712 35.5808 62.8582C35.697 62.8476 35.8132 62.8374 35.929 62.8256C36.062 62.8121 36.1943 62.7966 36.3268 62.7815C36.8498 62.7219 37.369 62.6507 37.884 62.5672C37.9518 62.5562 38.02 62.5459 38.0878 62.5345C38.2636 62.505 38.4385 62.4734 38.6133 62.4411C38.6716 62.4303 38.7299 62.4197 38.7882 62.4087C38.9744 62.3732 39.1602 62.3363 39.3453 62.2977C39.3805 62.2904 39.4157 62.2829 39.4508 62.2754C44.3143 61.2458 48.7699 59.1592 52.5525 56.2795C46.9497 57.6717 40.0179 58.4999 32.5001 58.4999C31.1226 58.4999 29.7651 58.4718 28.4316 58.4179C30.091 60.1124 31.935 61.6357 33.9453 62.9401C33.4635 62.9608 32.9869 63.0001 32.5 63.0001C32.7602 63.0001 33.0196 62.9964 33.2783 62.9905C33.3655 62.9885 33.4523 62.985 33.5394 62.9823C33.7106 62.9771 33.8815 62.9713 34.052 62.9634Z" fill="#FF7400"/>
<path d="M29.9539 62.8946C29.8114 62.8838 29.6683 62.8756 29.5264 62.8631C28.7151 62.7916 27.9125 62.6909 27.1196 62.5624C26.9883 62.5411 26.858 62.5172 26.7273 62.4944C25.0385 62.2 23.394 61.7834 21.807 61.2464C21.7565 61.2294 21.7053 61.2138 21.6549 61.1965C20.8528 60.9207 20.0655 60.6146 19.2936 60.2809C19.2446 60.2597 19.1959 60.238 19.147 60.2166C17.6574 59.5637 16.227 58.8059 14.8665 57.9526C18.0822 59.972 21.6873 61.4578 25.5504 62.2756C25.5848 62.2828 25.6191 62.2902 25.6536 62.2974C25.8394 62.3361 26.0257 62.3731 26.2126 62.4087C26.27 62.4196 26.3274 62.4301 26.385 62.4407C26.5604 62.4731 26.7361 62.5048 26.9124 62.5346C26.9795 62.5459 27.0469 62.5561 27.1141 62.567C27.6304 62.6507 28.1508 62.722 28.675 62.7817C28.8067 62.7967 28.9381 62.812 29.0702 62.8256C29.1865 62.8374 29.3032 62.8476 29.42 62.8582C29.5616 62.8712 29.7034 62.8837 29.8456 62.8949C29.9567 62.9035 30.0682 62.9115 30.1798 62.9191C30.3316 62.9295 30.4837 62.9388 30.636 62.9472C30.7399 62.9529 30.8437 62.9586 30.9479 62.9634C31.1183 62.9711 31.2892 62.977 31.4604 62.9823C31.5475 62.9849 31.6343 62.9884 31.7215 62.9904C31.9803 62.9963 32.2396 63 32.5 63C31.6421 63 30.7948 62.9579 29.9539 62.8946Z" fill="#FF7400"/>
<path d="M14.2046 56.6883C14.2036 56.688 14.2028 56.6873 14.2019 56.687C14.2028 56.6873 14.2038 56.688 14.2046 56.6883Z" fill="#FF7400"/>
<path d="M12.4475 56.2795L12.4484 56.2801L12.4475 56.2795Z" fill="#FF7400"/>
<path d="M13.3066 56.9099C13.7958 57.2577 14.2952 57.5924 14.8045 57.9138C14.2949 57.5927 13.7958 57.2575 13.3066 56.9099Z" fill="#FF7400"/>
<path d="M19.5125 35.9198C19.5819 33.3685 19.9689 30.8949 20.6275 28.529C20.6276 28.5284 20.6277 28.5279 20.6279 28.5274C20.6254 28.5271 20.623 28.5267 20.6207 28.5265C11.932 27.4299 4.96085 25.1669 1.40996 22.3081C1.20006 22.976 1.0182 23.6556 0.85326 24.3416C0.827125 24.4505 0.800312 24.559 0.775396 24.6684C0.615198 25.3683 0.474094 26.0751 0.362781 26.7916C0.361833 26.7983 0.361156 26.8051 0.360073 26.8117C0.255667 27.4874 0.181458 28.1724 0.122146 28.8613C0.107656 29.031 0.0938437 29.2008 0.0820625 29.3713C0.0333125 30.0755 0 30.7838 0 31.5001C0 30.9728 0.0338542 30.4539 0.0605312 29.9332C4.0281 32.664 10.9872 34.817 19.5125 35.9198Z" fill="#FF7400"/>
<path d="M0.157896 34.5937C0.158708 34.6019 0.158979 34.6102 0.159927 34.6185C0.159927 34.6185 0.160198 34.6187 0.160333 34.619C0.240635 34.7121 0.325542 34.8044 0.41275 34.8966C0.435906 34.921 0.459469 34.9453 0.483031 34.9697C0.559813 35.0488 0.638896 35.1277 0.720688 35.2061C0.734771 35.2196 0.748313 35.2332 0.762667 35.2469C0.861385 35.3403 0.964031 35.4331 1.06993 35.5254C1.08564 35.5392 1.10202 35.5528 1.118 35.5665C1.21658 35.6513 1.31774 35.7357 1.42228 35.8194C1.43447 35.8292 1.44639 35.8391 1.45884 35.8488C4.93296 38.6129 11.6211 40.8114 19.9542 41.9328C19.6652 40.245 19.5 38.517 19.5 36.75C19.5 36.473 19.5135 36.1992 19.521 35.9241C19.521 35.9231 19.521 35.922 19.5211 35.921C19.5183 35.9206 19.5154 35.9202 19.5126 35.9198C10.9874 34.817 4.02824 32.664 0.0606667 29.9331C0.0338542 30.4538 0 30.9727 0 31.5C0 32.0269 0.014625 32.5505 0.0410313 33.071C0.0674375 33.5819 0.107115 34.0893 0.157896 34.5937Z" fill="#D55A00"/>
<path d="M23.8541 20.9999C24.7565 19.4885 25.7875 18.0595 26.9279 16.7207C26.9281 16.7203 26.9284 16.7199 26.9288 16.7196C26.9275 16.7195 26.926 16.7195 26.9246 16.7193C22.5504 16.4753 18.4618 15.9498 14.8314 15.2003C14.8292 15.1999 14.8272 15.1993 14.825 15.1989C14.6337 15.1594 14.4439 15.119 14.2552 15.0783C14.2133 15.0693 14.1716 15.0602 14.1299 15.0512C13.954 15.0128 13.779 14.974 13.6056 14.9345C13.5589 14.9238 13.5124 14.9131 13.4658 14.9023C12.9368 14.7809 12.4191 14.6544 11.9123 14.5233C11.8473 14.5065 11.7817 14.4899 11.7171 14.4729C11.5895 14.4394 11.4636 14.4053 11.3375 14.3711C11.2445 14.3461 11.1517 14.3209 11.0595 14.2954C10.9438 14.2634 10.829 14.2311 10.7146 14.1986C10.6115 14.1693 10.5091 14.1398 10.407 14.11C10.3022 14.0795 10.1974 14.0489 10.0937 14.018C9.97303 13.982 9.85386 13.9454 9.73483 13.9088C9.6506 13.8829 9.56556 13.8574 9.48228 13.8312C9.28687 13.7699 9.09377 13.7079 8.90269 13.6452C8.83539 13.6232 8.76958 13.6004 8.70282 13.5783C8.56957 13.5338 8.43673 13.489 8.30578 13.4437C8.23062 13.4177 8.15641 13.3915 8.08193 13.3652C7.95911 13.3219 7.8371 13.2784 7.71631 13.2345C7.6444 13.2084 7.57277 13.1823 7.50167 13.1559C7.37303 13.1083 7.24601 13.0601 7.1198 13.0117C7.06103 12.9891 7.00172 12.9668 6.94349 12.9441C6.7604 12.8728 6.57935 12.8009 6.40155 12.728C6.40006 12.7299 6.39884 12.7318 6.39749 12.7337C6.00518 13.2453 5.63265 13.7716 5.27339 14.307C5.22153 14.3839 5.17102 14.4617 5.11983 14.5391C4.7691 15.072 4.43056 15.6133 4.11165 16.1665C4.11165 16.1665 4.11111 16.1673 4.11084 16.1677C4.11395 16.1693 4.1172 16.1708 4.12032 16.1726C4.28499 16.2587 4.45399 16.3437 4.62542 16.4282C4.67878 16.4545 4.73308 16.4806 4.78698 16.5067C4.91643 16.5693 5.04765 16.6315 5.18077 16.6934C5.23642 16.7192 5.29167 16.7451 5.34787 16.7707C5.52892 16.8532 5.71214 16.935 5.89969 17.0158C5.90795 17.0194 5.91635 17.0228 5.92448 17.0265C6.10932 17.1059 6.29809 17.1842 6.48916 17.2619C6.55051 17.2869 6.61266 17.3115 6.67455 17.3363C6.81877 17.394 6.96475 17.4512 7.11235 17.5079C7.17586 17.5323 7.2391 17.5567 7.30329 17.581C7.50425 17.6569 7.70737 17.7321 7.91442 17.8061C7.92864 17.8112 7.94313 17.8162 7.95735 17.8212C8.15844 17.8928 8.36279 17.9633 8.5693 18.0332C8.63904 18.0568 8.70959 18.08 8.77987 18.1034C8.93695 18.1555 9.09553 18.2072 9.25559 18.2584C9.3275 18.2813 9.39913 18.3044 9.47172 18.3272C9.68838 18.3951 9.90694 18.4625 10.1289 18.5285C10.1544 18.5361 10.1801 18.5435 10.2055 18.5511C10.4183 18.6139 10.6337 18.6759 10.8511 18.737C10.93 18.7592 11.0096 18.7811 11.0891 18.8031C11.2561 18.8491 11.4244 18.8947 11.5941 18.9398C11.6754 18.9614 11.7563 18.983 11.8381 19.0044C12.0663 19.0639 12.2964 19.1225 12.5292 19.18C12.5699 19.1901 12.6109 19.2 12.6518 19.2099C12.8719 19.2638 13.0942 19.3166 13.3184 19.3688C13.4072 19.3894 13.4967 19.4097 13.5862 19.43C13.7613 19.4699 13.9376 19.5092 14.1152 19.548C14.2053 19.5677 14.2953 19.5875 14.386 19.607C14.6239 19.6579 14.8636 19.708 15.1055 19.7569C15.1619 19.7683 15.2189 19.7796 15.2755 19.7909C15.5015 19.836 15.7295 19.8802 15.9589 19.9235C16.057 19.9422 16.156 19.9603 16.2547 19.9785C16.4359 20.012 16.6182 20.045 16.8014 20.0772C16.9015 20.095 17.0013 20.1127 17.1019 20.13C17.3469 20.1723 17.5935 20.2136 17.842 20.2539C17.9149 20.2657 17.9883 20.2773 18.0616 20.2889C18.2919 20.3256 18.5236 20.3614 18.7568 20.3964C18.8637 20.4125 18.9712 20.4279 19.0784 20.4437C19.2661 20.471 19.4546 20.4978 19.6441 20.524C19.7516 20.5388 19.859 20.5539 19.9671 20.5684C20.2215 20.6025 20.4773 20.6357 20.7349 20.6679C20.8184 20.6782 20.9024 20.6883 20.9862 20.6986C21.2225 20.7273 21.46 20.7553 21.6989 20.7824C21.8125 20.7953 21.9269 20.8078 22.0411 20.8202C22.235 20.8415 22.4297 20.862 22.6251 20.8821C22.7393 20.8937 22.8533 20.9056 22.968 20.9168C23.2321 20.9428 23.4975 20.9679 23.7643 20.9919C23.7943 20.9943 23.824 20.9972 23.8541 20.9999Z" fill="#FFD042"/>
<path d="M33.945 62.9402C31.9348 61.6357 30.0908 60.1125 28.4314 58.418C28.4283 58.4147 28.4249 58.4117 28.4218 58.4084C28.4161 58.4081 28.4106 58.4079 28.405 58.4076C23.2165 58.1958 18.3895 57.5945 14.2045 56.6876C14.2036 56.6874 14.2028 56.6872 14.2018 56.6871C13.9199 56.6259 13.6413 56.5632 13.3652 56.4994C13.3241 56.4898 13.2832 56.4802 13.242 56.4706C12.9747 56.4081 12.7095 56.3449 12.4481 56.2799L12.4475 56.2798C12.4478 56.2799 12.4481 56.2802 12.4483 56.2803C12.6781 56.4553 12.9112 56.6262 13.1459 56.7951C13.1993 56.8335 13.253 56.8719 13.3067 56.91C13.796 57.2576 14.2951 57.5929 14.8046 57.914C14.8253 57.927 14.8459 57.94 14.8666 57.953C16.2273 58.8062 17.6575 59.5641 19.1471 60.2169C19.196 60.2383 19.2446 60.2601 19.2938 60.2812C20.0655 60.615 20.8528 60.921 21.655 61.1968C21.7054 61.2141 21.7566 61.2296 21.8071 61.2467C23.3943 61.7838 25.0388 62.2003 26.7275 62.4947C26.8581 62.5174 26.9884 62.5415 27.1198 62.5627C27.9126 62.6912 28.7152 62.7918 29.5265 62.8634C29.6684 62.8759 29.8114 62.8842 29.954 62.8949C30.7947 62.9579 31.642 63 32.4999 63C32.9868 63 33.4634 62.9608 33.945 62.9402Z" fill="#D55A00"/>
<path d="M22.7499 54.5999C22.8176 53.0905 21.8923 52.1937 20.5833 51.4499C18.9301 50.5107 16.0468 49.8749 16.2499 51.4499C16.4531 53.0249 22.6822 56.1093 22.7499 54.5999Z" fill="#FFD042"/>
<path d="M34.125 29.4C35.0225 29.4 35.75 28.9299 35.75 28.35C35.75 27.7701 35.0225 27.3 34.125 27.3C33.2275 27.3 32.5 27.7701 32.5 28.35C32.5 28.9299 33.2275 29.4 34.125 29.4Z" fill="#FF9300"/>
</svg>
