<svg width="43" height="43" viewBox="0 0 43 43" fill="none" xmlns="http://www.w3.org/2000/svg">
<path d="M22.1079 41.2832L21.5845 40.7904L24.5413 34.4586C24.5447 34.4508 24.5435 34.4428 24.5462 34.4358C24.5565 34.4105 24.5603 34.3838 24.5659 34.3568C24.5697 34.3384 24.5808 34.3241 24.5827 34.3053C24.5834 34.297 24.5799 34.2889 24.5798 34.2806C24.5809 34.2659 24.5818 34.2523 24.5815 34.2376C24.5806 34.2107 24.5722 34.1835 24.5675 34.1557C24.5622 34.1267 24.5597 34.0983 24.5496 34.0703C24.5448 34.0561 24.539 34.0437 24.533 34.0299C24.5295 34.0218 24.5306 34.0139 24.5268 34.0062L22.1174 28.9908C22.1165 28.9892 22.1156 28.9884 22.1147 28.9869C22.098 28.9533 22.07 28.9242 22.0466 28.8926C22.0242 28.8625 22.0062 28.8285 21.9797 28.8028C21.9781 28.8013 21.9779 28.7997 21.9766 28.7985L19.8764 26.8211L21.2474 25.3649L21.597 24.9936C22.3129 25.303 23.0457 25.4992 23.7707 25.5843L24.0685 28.5065C24.0832 28.655 24.1575 28.7915 24.265 28.8927C24.3721 28.9936 24.5129 29.0595 24.6624 29.0657C24.9599 29.0779 25.1768 28.8475 25.147 28.5509L24.8493 25.6287C26.4693 25.5711 27.9779 24.9492 29.0634 23.7963C29.072 23.7872 29.0785 23.7769 29.0871 23.7678L24.5056 21.9044L25.0176 21.3606L26.6292 19.1414L30.5518 20.7283C30.6193 20.3208 30.6413 19.902 30.6317 19.4795L33.5737 19.6008C33.8712 19.6131 34.0882 19.3826 34.0584 19.0861C34.0278 18.7895 33.7619 18.5391 33.4644 18.5269L30.5239 18.4057C30.3455 17.3875 29.943 16.3733 29.3218 15.4348L29.8687 14.6814C30.3238 14.055 29.8387 13.5131 29.515 13.2173L30.535 12.1339L30.9551 12.5294C31.1869 12.7477 31.5283 12.7621 31.7178 12.5608C31.907 12.3599 31.8724 12.0196 31.6405 11.8014L31.2205 11.4059L31.5633 11.0418C31.7525 10.8409 31.7178 10.5006 31.486 10.2824C31.2537 10.0637 30.9124 10.05 30.7232 10.2509L30.3805 10.6149L29.9605 10.2195C29.7282 10.0008 29.3869 9.9871 29.1977 10.188C29.0082 10.3893 29.0427 10.7288 29.275 10.9475L29.695 11.343L28.675 12.4263C28.3603 12.121 27.7894 11.6694 27.1919 12.161L26.4728 12.7523C25.499 12.1884 24.4619 11.8465 23.4349 11.7305L23.1373 8.80372C23.1067 8.5071 22.8409 8.25679 22.5434 8.24453C22.2451 8.23223 22.0282 8.46264 22.0588 8.75926L22.357 11.6929C21.979 11.7071 21.6055 11.7436 21.2425 11.8186L22.9544 15.6443L22.1339 16.3188L20.7097 13.1354C20.2937 13.3027 19.9089 13.5221 19.5596 13.7913L21.0916 17.1751L20.8571 17.3677L20.4855 17.7624C20.4824 17.7656 20.4776 17.7665 20.4745 17.7698C20.4711 17.7735 20.4708 17.778 20.4674 17.7816L20.3159 17.9426L18.2594 13.4015C18.2207 13.44 18.1798 13.4743 18.1424 13.514C17.057 14.6668 16.5266 16.2098 16.5666 17.8304L13.6321 17.7094C13.3338 17.6971 13.1169 17.9276 13.1475 18.2242C13.1622 18.3727 13.2365 18.5092 13.344 18.6104C13.4511 18.7113 13.5919 18.7772 13.7414 18.7834L16.6762 18.9047C16.8044 19.6228 17.0444 20.3426 17.3966 21.0389L15.6761 22.8663L13.5759 20.8889C13.5746 20.8877 13.5727 20.8873 13.5714 20.8861C13.5445 20.8615 13.5103 20.8457 13.4794 20.8256C13.446 20.8038 13.4144 20.7767 13.3791 20.762C13.3779 20.7616 13.3767 20.7604 13.3751 20.7596L8.22377 18.6564C8.21586 18.6531 8.20801 18.6546 8.19974 18.6517C8.18632 18.6466 8.17329 18.6419 8.15918 18.6376C8.13024 18.6295 8.10091 18.6287 8.07132 18.6249C8.04361 18.6214 8.01638 18.6151 7.98949 18.6158C7.97472 18.6163 7.96123 18.618 7.94698 18.6197C7.93874 18.6209 7.93039 18.6171 7.92222 18.6191C7.90313 18.6217 7.88951 18.6336 7.87141 18.6385C7.84522 18.6462 7.81835 18.6511 7.79374 18.663C7.7868 18.6661 7.77844 18.6657 7.77163 18.6696L1.62881 22.0017L1.10586 21.5094C0.873569 21.2907 0.532279 21.277 0.3431 21.4779C0.153561 21.6792 0.18811 22.0187 0.420396 22.2374L1.25921 23.0272C1.25966 23.0276 1.25973 23.0283 1.26057 23.0291C1.26101 23.0295 1.26173 23.0295 1.26217 23.0299L2.52062 24.2148C2.75246 24.4331 3.09383 24.4476 3.28337 24.2462C3.47255 24.0453 3.43792 23.705 3.20608 23.4868L2.50292 22.8247L3.43474 22.319C3.44797 22.3335 3.45692 22.3502 3.47119 22.3636C3.51864 22.4083 3.57385 22.4465 3.63536 22.4762L9.53692 25.327L13.2434 28.8166L11.1869 31.0008L10.7669 30.6054C10.5346 30.3867 10.1933 30.373 10.0041 30.5739C9.81458 30.7752 9.84913 31.1147 10.0814 31.3334L11.7616 32.9153C11.9934 33.1336 12.3348 33.1481 12.5243 32.9467C12.7135 32.7458 12.6789 32.4056 12.447 32.1873L12.027 31.7918L14.0835 29.6076L17.7895 33.0969L20.9903 38.8162C21.0237 38.8758 21.0651 38.9286 21.113 38.9737C21.1269 38.9867 21.1444 38.995 21.1593 39.0069L20.7105 39.9675L20.0078 39.3059C19.7755 39.0872 19.4342 39.0735 19.2451 39.2744C19.0555 39.4758 19.0901 39.8152 19.3224 40.0339L20.5808 41.2188C20.5812 41.2192 20.5813 41.2199 20.5818 41.2203C20.5822 41.2207 20.5829 41.2208 20.5834 41.2212L21.4226 42.0114C21.6545 42.2297 21.9958 42.2441 22.1854 42.0428C22.3744 41.8417 22.3398 41.5015 22.1079 41.2832ZM4.47488 21.7545L7.78151 19.961L8.97208 23.9271L4.47488 21.7545ZM10.0259 23.8178L8.88924 20.0309L12.2856 21.4178L10.0259 23.8178ZM12.8568 25.0191C12.6245 24.8004 12.5899 24.4609 12.7795 24.2596C12.9687 24.0587 13.31 24.0723 13.5422 24.291C13.7741 24.5093 13.8087 24.8496 13.6195 25.0505C13.4301 25.2518 13.0887 25.2374 12.8568 25.0191ZM27.9034 13.07L27.9063 13.0728C27.9567 13.1202 28.016 13.1809 28.0644 13.2305C28.1368 13.3042 28.2126 13.3811 28.2937 13.4574L28.5084 13.6595C28.5894 13.7359 28.6707 13.8069 28.7487 13.8748C28.8028 13.9216 28.8752 13.9802 28.9203 14.0274L28.6169 14.4457L25.5315 18.6972L24.1746 20.5669L21.6598 18.1992L27.9034 13.07ZM14.537 26.601C14.3047 26.3823 14.2701 26.0428 14.4597 25.8415C14.6489 25.6406 14.9901 25.6543 15.2224 25.873C15.4543 26.0912 15.4889 26.4315 15.2997 26.6324C15.1102 26.8337 14.7688 26.8193 14.537 26.601ZM16.2171 28.1829C15.9848 27.9642 15.9503 27.6247 16.1398 27.4234C16.329 27.2225 16.6703 27.2361 16.9026 27.4549C17.1344 27.6731 17.1691 28.0134 16.9799 28.2143C16.7904 28.4156 16.449 28.4012 16.2171 28.1829ZM23.3594 21.4385L21.2419 23.6875C20.2179 23.1121 19.3577 22.3022 18.7217 21.3147L20.8292 19.0763L20.9718 18.9248L23.492 21.2977L23.3594 21.4385ZM17.8973 29.7648C17.665 29.5461 17.6304 29.2066 17.82 29.0053C18.0092 28.8044 18.3504 28.818 18.5827 29.0367C18.8146 29.255 18.8492 29.5953 18.66 29.7962C18.4706 29.9975 18.1292 29.9831 17.8973 29.7648ZM21.5265 30.1182L23.1148 33.4245L19.2668 32.5183L21.5265 30.1182ZM19.2206 33.5763L23.2512 34.526L21.66 37.9346L19.2206 33.5763Z" fill="white"/>
<path d="M25.2169 21.0912L28.6399 22.4833C28.8963 22.1217 29.1012 21.7274 29.2526 21.3049L26.0129 19.9941L25.2169 21.0912Z" fill="white"/>
</svg>
