<svg width="65" height="63" viewBox="0 0 65 63" fill="none" xmlns="http://www.w3.org/2000/svg">
<g clip-path="url(#clip0_13_597)">
<path d="M3.35097 45.4416C3.26484 45.2728 3.18007 45.1031 3.09692 44.9326C3.17993 45.1032 3.26484 45.2728 3.35097 45.4416Z" fill="#FF4F19"/>
<path d="M3.0234 44.7798C2.94378 44.614 2.86523 44.4477 2.78845 44.2805C2.8651 44.4479 2.94378 44.614 3.0234 44.7798Z" fill="#FF4F19"/>
<path d="M2.71255 44.1124C2.63821 43.9478 2.56454 43.7827 2.49304 43.6167C2.56454 43.7827 2.63821 43.9477 2.71255 44.1124Z" fill="#FF4F19"/>
<path d="M41.1072 1.1189C46.3285 2.50792 51.0238 5.12911 54.8435 8.63703C53.5553 8.48648 52.2467 8.39999 50.9167 8.39999C34.0885 8.39999 20.2476 20.7963 18.5843 36.6813C18.5839 36.6855 18.5835 36.6899 18.5831 36.6941C18.583 36.6959 18.5828 36.6978 18.5826 36.6996C22.8739 37.42 27.6593 37.8 32.5 37.8C38.1684 37.8 43.711 37.2852 48.5289 36.3111C50.43 35.9255 52.2126 35.4703 53.8292 34.9555C54.3973 34.773 55.0088 35.0745 55.1961 35.6261C55.3823 36.1767 55.0734 36.7694 54.5043 36.9509C53.451 37.2861 52.3258 37.5937 51.1533 37.8774C51.1396 37.8883 51.1332 37.9043 51.1189 37.9148L48.9988 39.456L51.2046 40.0455C51.6796 40.1727 52.0065 40.5931 52.0001 41.07C51.9938 41.5478 51.6574 41.961 51.1791 42.0759C45.7126 43.4007 39.2528 44.1 32.5 44.1C32.0229 44.1 31.6018 43.7975 31.4633 43.3545C31.3247 42.9115 31.5024 42.4327 31.8992 42.1763C32.2462 41.9517 32.2335 41.6184 32.2124 41.4861C32.1913 41.3528 32.0981 41.0308 31.696 40.9201L25.7663 39.6496C25.7575 39.6476 25.7511 39.6414 25.7423 39.6393C23.2184 39.4561 20.7588 39.1818 18.4385 38.8042C18.4256 39.168 18.4168 39.5329 18.4168 39.8999C18.4168 47.0143 20.8558 53.5726 24.9615 58.8444C27.4767 57.7342 30.0644 56.6076 32.5456 56.7009C36.4484 56.8671 38.4426 55.7996 38.4617 55.7883C38.9801 55.5084 39.6413 55.6807 39.9366 56.18C40.2318 56.6804 40.0603 57.3161 39.5461 57.6063C39.4467 57.6638 37.0673 58.9906 32.4548 58.7988C30.6346 58.7088 28.4898 59.5976 26.3697 60.5307L26.37 60.5309C26.37 60.5309 26.3697 60.531 26.3694 60.5312C27.0666 61.3092 27.802 62.0543 28.5735 62.7628C26.8321 62.5594 25.1336 62.2221 23.4882 61.7628L23.4876 61.7631C23.4829 61.7618 23.4781 61.7602 23.4734 61.7589C23.2015 61.6829 22.9311 61.6032 22.662 61.5205C22.4946 61.4695 22.3287 61.4154 22.1626 61.362C22.0984 61.3411 22.0341 61.3208 21.9701 61.2996C21.2416 61.0605 20.5232 60.8005 19.82 60.5115C19.8275 60.5118 19.8356 60.5111 19.8432 60.5112C13.1434 57.7636 7.59174 52.9025 4.08093 46.7888C9.62936 56.4573 20.2755 63 32.5 63C50.4492 63 65 48.8969 65 31.5C65 16.9914 54.8788 4.77592 41.1072 1.1189ZM36.8333 30.45C36.7984 30.4521 36.7413 30.4489 36.6948 30.4489C35.147 30.4489 34.1938 30.9207 33.0935 31.4651C31.9245 32.0434 30.6317 32.6832 28.6417 32.6832C28.1148 32.6832 27.5404 32.6381 26.9057 32.5356C26.3154 32.4401 25.9165 31.8987 26.0149 31.3277C26.1123 30.7555 26.6687 30.3627 27.2611 30.4643C29.5918 30.8386 30.7567 30.2634 32.1087 29.5948C33.319 28.995 34.6466 28.2895 36.8514 28.35C37.4491 28.3592 37.9263 28.8371 37.9167 29.4174C37.9072 29.9906 37.4236 30.45 36.8333 30.45ZM45.2683 28.999C44.296 30.1988 41.9273 30.4121 41.2249 30.4489C41.2047 30.45 41.1858 30.45 41.1656 30.45C40.5943 30.45 40.1172 30.0173 40.0854 29.4573C40.0526 28.8791 40.5096 28.3837 41.1063 28.352C42.1452 28.2945 43.3396 27.9787 43.5649 27.7008C43.9342 27.2455 44.6144 27.1645 45.0862 27.5244C45.5561 27.8823 45.6385 28.5428 45.2683 28.999ZM27.8525 43.7851C27.6463 43.9841 27.3647 44.0999 27.0833 44.0999C26.8019 44.0999 26.5195 43.984 26.3142 43.7954C26.1185 43.5955 26 43.3226 26 43.0499C26 42.7771 26.1185 42.5033 26.3142 42.3044C26.7151 41.9157 27.4408 41.9157 27.8524 42.3044C28.0577 42.5033 28.1665 42.7771 28.1665 43.0499C28.1665 43.3226 28.0577 43.5955 27.8525 43.7851ZM41.9357 49.0351C41.7295 49.2341 41.4479 49.3499 41.1665 49.3499C40.8851 49.3499 40.6027 49.234 40.3974 49.0454C40.2017 48.8455 40.0832 48.5726 40.0832 48.2999C40.0832 48.0271 40.2017 47.7533 40.3974 47.5544C40.7983 47.1657 41.524 47.1657 41.9356 47.5544C42.1409 47.7533 42.2497 48.0271 42.2497 48.2999C42.2497 48.5726 42.141 48.8455 41.9357 49.0351ZM50.6024 25.9221C50.3961 26.1211 50.1146 26.2369 49.8332 26.2369C49.5518 26.2369 49.2693 26.121 49.064 25.9324C48.8684 25.7325 48.7499 25.4596 48.7499 25.1869C48.7499 24.9141 48.8684 24.6403 49.064 24.4414C49.465 24.0527 50.1907 24.0527 50.6022 24.4414C50.8075 24.6403 50.9164 24.9141 50.9164 25.1869C50.9164 25.4596 50.8077 25.7325 50.6024 25.9221ZM54.9357 30.1351C54.7295 30.3341 54.4479 30.4499 54.1665 30.4499C53.8851 30.4499 53.6027 30.334 53.3974 30.1454C53.2017 29.9455 53.0832 29.6726 53.0832 29.3999C53.0832 29.1271 53.2017 28.8533 53.3974 28.6544C53.7983 28.2657 54.524 28.2657 54.9356 28.6544C55.1409 28.8533 55.2497 29.1271 55.2497 29.3999C55.2497 29.6726 55.141 29.9455 54.9357 30.1351ZM50.0734 17.1322C49.9919 17.1507 49.9116 17.1588 49.8312 17.1588C49.3372 17.1588 48.8907 16.8297 48.7764 16.3426C48.6432 15.7776 49.007 15.2146 49.5911 15.0855C52.9505 14.341 55.8647 13.4229 58.3114 12.3669C58.7603 12.9349 59.1905 13.517 59.5993 14.1145C56.9447 15.3007 53.7495 16.3184 50.0734 17.1322Z" fill="#FF4F19"/>
<path d="M3.6946 46.0958C3.60035 45.9217 3.50799 45.7463 3.41699 45.5703C3.50799 45.7465 3.60048 45.9217 3.6946 46.0958Z" fill="#FF4F19"/>
<path d="M4.05348 46.7417C3.94907 46.5591 3.84697 46.3753 3.74622 46.1907C3.84683 46.3753 3.94921 46.5591 4.05348 46.7417Z" fill="#FF4F19"/>
<path d="M37.3296 0.34668C37.5131 0.373192 37.6956 0.402198 37.878 0.43173C37.6955 0.40233 37.5129 0.373192 37.3296 0.34668Z" fill="#FF4F19"/>
<path d="M38.1055 0.468262C38.3013 0.501337 38.4961 0.536774 38.6907 0.573262C38.4961 0.536905 38.3013 0.501205 38.1055 0.468262Z" fill="#FF4F19"/>
<path d="M0.0185085 32.5466C0.0159142 32.459 0.0121407 32.3717 0.0102539 32.2839C0.0121407 32.3716 0.0159142 32.4589 0.0185085 32.5466Z" fill="#FF4F19"/>
<path d="M34.1399 0.0397949C34.2694 0.0457348 34.3981 0.0541497 34.5272 0.0614508C34.3981 0.0542734 34.2695 0.0457348 34.1399 0.0397949Z" fill="#FF4F19"/>
<path d="M38.8715 0.606689C39.0799 0.646852 39.2873 0.689508 39.4942 0.733608C39.2872 0.689639 39.0797 0.646852 38.8715 0.606689Z" fill="#FF4F19"/>
<path d="M39.6277 0.761963C39.8488 0.81 40.069 0.8604 40.2884 0.912769C40.069 0.860532 39.849 0.809869 39.6277 0.761963Z" fill="#FF4F19"/>
<path d="M0.290672 35.7192C0.274664 35.603 0.258925 35.4867 0.244263 35.3701C0.25906 35.4867 0.274799 35.603 0.290672 35.7192Z" fill="#FF4F19"/>
<path d="M0.115805 34.1696C0.106693 34.0589 0.0970682 33.9486 0.0891113 33.8376C0.0970682 33.9486 0.106822 34.0591 0.115805 34.1696Z" fill="#FF4F19"/>
<path d="M2.14687 42.7765C2.07834 42.6035 2.01023 42.4303 1.94482 42.2559C2.01023 42.4303 2.07834 42.6034 2.14687 42.7765Z" fill="#FF4F19"/>
<path d="M0.859753 38.7232C0.830097 38.601 0.802337 38.4782 0.77417 38.3555C0.802337 38.4782 0.830232 38.601 0.859753 38.7232Z" fill="#FF4F19"/>
<path d="M0.690661 37.9831C0.664661 37.8625 0.63988 37.7414 0.615234 37.6204C0.63988 37.7415 0.664526 37.8625 0.690661 37.9831Z" fill="#FF4F19"/>
<path d="M0.539039 37.2355C0.516424 37.1165 0.494758 36.997 0.473633 36.8774C0.494893 36.997 0.51656 37.1163 0.539039 37.2355Z" fill="#FF4F19"/>
<path d="M19.8429 60.5112C19.8354 60.5111 19.8272 60.5118 19.8197 60.5115C20.5229 60.8006 21.2415 61.0605 21.9699 61.2997C22.0338 61.3209 22.0982 61.3413 22.1623 61.362C22.3284 61.4154 22.4943 61.4695 22.6617 61.5205C22.9306 61.6032 23.2011 61.6828 23.4731 61.7589C23.4779 61.7602 23.4826 61.7618 23.4873 61.7631L23.4879 61.7628C25.1332 62.2221 26.8319 62.5594 28.5732 62.7628C27.8017 62.0543 27.0663 61.3092 26.3691 60.5312C26.1714 60.6182 25.9736 60.7052 25.7767 60.7922C25.0014 61.1343 24.2397 61.4692 23.4994 61.7582C23.3961 61.7295 23.2926 61.7009 23.1896 61.6712C22.8241 61.5657 22.4625 61.452 22.1022 61.3354C21.8702 61.2595 21.6365 61.1869 21.4068 61.1061C21.1549 61.0184 20.9083 60.9199 20.6594 60.8261C20.3867 60.7225 20.1132 60.6207 19.8441 60.5103C21.0997 60.5402 23.0145 59.7033 24.8785 58.881C24.9083 58.8679 24.9382 58.8547 24.9681 58.8416C25.4177 59.4188 25.8808 59.9854 26.3694 60.5308C28.4895 59.5977 30.6344 58.7089 32.4545 58.7989C37.0672 58.9907 39.4465 57.6639 39.5459 57.6064C40.06 57.3162 40.2315 56.6804 39.9363 56.1801C39.6411 55.6807 38.9798 55.5085 38.4614 55.7885C38.4424 55.7998 36.4482 56.8672 32.5454 56.701C30.0641 56.6077 27.4764 57.7344 24.9612 58.8445C20.8557 53.5727 18.4167 47.0144 18.4167 39.9C18.4167 39.533 18.4255 39.1683 18.4383 38.8043C20.7588 39.1821 23.2183 39.4564 25.7422 39.6395C25.751 39.6416 25.7572 39.6477 25.7661 39.6497L31.6959 40.9202C32.0979 41.031 32.191 41.3529 32.2122 41.4863C32.2334 41.6186 32.2461 41.9518 31.899 42.1764C31.5022 42.4327 31.3246 42.9117 31.4631 43.3546C31.6016 43.7976 32.0228 44.1 32.5 44.1C39.2528 44.1 45.7126 43.4007 51.179 42.0759C51.6571 41.961 51.9936 41.5478 52 41.07C52.0064 40.5931 51.6795 40.1727 51.2044 40.0456L48.9986 39.456L51.1187 37.9148C51.1331 37.9043 51.1394 37.8885 51.1531 37.8774C52.3255 37.5937 53.4509 37.2862 54.5041 36.9509C55.0733 36.7694 55.3822 36.1768 55.196 35.6261C55.0087 35.0745 54.3973 34.773 53.8291 34.9555C52.2125 35.4703 50.4298 35.9256 48.5287 36.3111C43.711 37.2852 38.1684 37.8 32.5 37.8C27.6593 37.8 22.8739 37.42 18.5826 36.6996C18.5827 36.6978 18.5828 36.6959 18.5831 36.6941C18.5108 37.3887 18.4706 38.092 18.4454 38.7992C18.005 38.7275 17.5608 38.6585 17.1312 38.5792C16.5429 38.4706 16.1568 37.9209 16.269 37.3518C16.38 36.7816 16.9471 36.4084 17.5354 36.5161C17.8743 36.5787 18.2386 36.6232 18.5842 36.6814C20.2476 20.7963 34.0884 8.4 50.9167 8.4C52.2467 8.4 53.5553 8.48649 54.8435 8.63704C51.0236 5.12912 46.3285 2.50792 41.1072 1.11891C41.0965 1.11602 41.0858 1.11326 41.0751 1.11051C40.8423 1.04882 40.6083 0.989625 40.3734 0.932925C40.3452 0.9261 40.3168 0.919537 40.2885 0.912844C40.0691 0.860475 39.8489 0.810075 39.6278 0.762037C39.5834 0.752325 39.5387 0.743269 39.4943 0.733819C39.2874 0.689719 39.0799 0.647194 38.8715 0.6069C38.8114 0.59535 38.751 0.584587 38.6908 0.5733C38.4962 0.536812 38.3014 0.501375 38.1056 0.4683C38.03 0.455569 37.9539 0.444019 37.8782 0.431812C37.6958 0.402281 37.5131 0.373275 37.3298 0.346762C37.2392 0.333637 37.148 0.322219 37.0572 0.30975C36.8867 0.286519 36.7163 0.263287 36.545 0.242681C36.4391 0.22995 36.3324 0.219187 36.2263 0.207375C36.0682 0.189787 35.9103 0.171806 35.7515 0.156581C35.6295 0.144769 35.5068 0.13545 35.3845 0.12495C35.2397 0.112612 35.0951 0.0993562 34.9498 0.088725C34.8095 0.0786187 34.6683 0.0711375 34.5275 0.0627375C34.3984 0.0549937 34.2696 0.0459375 34.1402 0.0397687C33.9717 0.0316312 33.8024 0.026775 33.6333 0.0211312C33.53 0.0177187 33.4271 0.0126 33.3235 0.0101062C33.0497 0.00354375 32.7753 0 32.5 0C18.2794 0 6.19382 8.85321 1.7856 21.1824C1.8483 21.0045 1.91276 20.8273 1.97939 20.6511C2.00322 20.6717 2.03328 20.6807 2.05562 20.7036C3.78855 22.4981 6.94227 24.1592 11.1751 25.5066C11.7443 25.6881 12.0532 26.2807 11.867 26.8314C11.7168 27.2744 11.2936 27.5544 10.8375 27.5544C10.7254 27.5544 10.6122 27.538 10.5001 27.5021C6.46696 26.2188 3.2997 24.6262 1.24705 22.8635C1.41172 22.3028 1.58695 21.7465 1.77992 21.1982C0.627656 24.4263 0 27.8919 0 31.5C0 31.7621 0.00365625 32.0233 0.0102917 32.284C0.0124583 32.3718 0.0169271 32.459 0.0197708 32.5466C0.0255937 32.719 0.0314167 32.8915 0.0400833 33.0633C0.0453646 33.1677 0.0526771 33.2713 0.0590417 33.3754C0.0683854 33.5298 0.0775937 33.684 0.0892396 33.8377C0.0976354 33.9486 0.107792 34.059 0.117406 34.1696C0.130135 34.3156 0.142729 34.4614 0.15749 34.6067C0.169 34.7211 0.182 34.8351 0.194865 34.9491C0.210708 35.0897 0.226823 35.2301 0.244562 35.3702C0.259323 35.4868 0.275167 35.6031 0.291281 35.7193C0.310104 35.8554 0.329469 35.9912 0.350052 36.1268C0.368062 36.2452 0.38675 36.3633 0.406115 36.4812C0.427781 36.6136 0.450396 36.7457 0.473823 36.8776C0.495083 36.9971 0.516615 37.1166 0.539229 37.2356C0.563604 37.3642 0.589333 37.4923 0.615333 37.6204C0.639979 37.7416 0.664625 37.8626 0.69076 37.9832C0.717573 38.1076 0.74601 38.2317 0.774448 38.3556C0.802615 38.4783 0.830375 38.6011 0.860031 38.7233C0.888875 38.8424 0.919479 38.9609 0.949677 39.0794C0.981771 39.2056 1.01346 39.3318 1.04718 39.4573C1.07656 39.5666 1.10784 39.6752 1.13845 39.784C1.17596 39.9175 1.21252 40.0512 1.25179 40.1839C1.27684 40.2687 1.30379 40.3527 1.32952 40.4371C1.50692 41.0189 1.70029 41.594 1.91086 42.1612C1.92251 42.1925 1.93348 42.2243 1.94526 42.2557C2.01067 42.4301 2.07878 42.6034 2.1473 42.7763C2.16897 42.8312 2.18996 42.8865 2.2119 42.9411C2.27933 43.1085 2.34921 43.275 2.41949 43.441C2.44427 43.4994 2.46837 43.5581 2.49343 43.6163C2.56493 43.7825 2.63859 43.9475 2.71294 44.1121C2.73826 44.1681 2.76318 44.2244 2.78891 44.2805C2.86569 44.4477 2.94423 44.614 3.02385 44.7797C3.04836 44.8307 3.0726 44.8816 3.09739 44.9324C3.18053 45.1029 3.2653 45.2726 3.35143 45.4414C3.37336 45.4843 3.3953 45.5273 3.41751 45.5701C3.50837 45.7463 3.60086 45.9215 3.69511 46.0957C3.71218 46.1273 3.72951 46.1588 3.74671 46.1904C3.84746 46.3751 3.9497 46.559 4.05397 46.7414C4.06304 46.7572 4.07211 46.7728 4.08119 46.7885C7.59159 52.9027 13.1433 57.7636 19.8429 60.5112ZM23.0642 9.7545C23.4651 9.36587 24.1908 9.36587 24.6024 9.7545C24.8077 9.95347 24.9165 10.2273 24.9165 10.5C24.9165 10.7727 24.8075 11.0455 24.6024 11.2353C24.3961 11.4341 24.1147 11.55 23.8333 11.55C23.5519 11.55 23.2695 11.4341 23.0642 11.2455C22.8685 11.0455 22.75 10.7727 22.75 10.5C22.75 10.2273 22.8685 9.95347 23.0642 9.7545ZM14.1964 13.9162C15.0354 12.6382 16.5341 12.107 17.5436 12.7297C18.5532 13.3523 18.6914 14.8931 17.8524 16.171C17.0133 17.449 15.5148 17.9802 14.5052 17.3575C13.4955 16.7349 13.3574 15.1942 14.1964 13.9162ZM7.53391 36.0699C7.26551 34.8663 7.81869 33.7291 8.76945 33.5299C9.72021 33.3307 10.7086 34.1449 10.977 35.3485C11.2454 36.5521 10.6922 37.6892 9.74147 37.8885C8.79071 38.0876 7.8023 37.2733 7.53391 36.0699Z" fill="#DB3F3D"/>
<path d="M36.8514 28.3501C34.6467 28.2896 33.3189 28.995 32.1087 29.5948C30.7567 30.2634 29.5918 30.8387 27.2612 30.4644C26.6687 30.3629 26.1123 30.7556 26.0149 31.3277C25.9165 31.8989 26.3154 32.4404 26.9057 32.5356C27.5405 32.6381 28.115 32.6833 28.6417 32.6833C30.6317 32.6833 31.9245 32.0434 33.0936 31.4652C34.1938 30.9207 35.147 30.449 36.6948 30.449C36.7414 30.449 36.7986 30.452 36.8334 30.4501C37.4236 30.4501 37.9072 29.9907 37.9167 29.4175C37.9262 28.8371 37.4491 28.3593 36.8514 28.3501Z" fill="#DB3F3D"/>
<path d="M45.0863 27.5246C44.6145 27.1648 43.9342 27.2457 43.5651 27.701C43.3397 27.9789 42.1453 28.2947 41.1064 28.3522C40.5098 28.3839 40.0527 28.8793 40.0855 29.4576C40.1172 30.0175 40.5944 30.4502 41.1657 30.4502C41.1858 30.4502 41.2049 30.4502 41.2251 30.4492C41.9275 30.4123 44.2963 30.199 45.2685 28.9992C45.6386 28.5429 45.5561 27.8824 45.0863 27.5246Z" fill="#DB3F3D"/>
<path d="M14.1954 13.9162C13.3563 15.1942 13.4945 16.7351 14.5041 17.3578C15.5137 17.9805 17.0123 17.4492 17.8514 16.1712C18.6905 14.8932 18.5523 13.3524 17.5427 12.7297C16.5331 12.107 15.0345 12.6382 14.1954 13.9162Z" fill="#A03939"/>
<path d="M9.74176 37.8873C10.6925 37.6881 11.2456 36.5509 10.9771 35.3474C10.7087 34.1439 9.72036 33.3297 8.76964 33.529C7.81893 33.7282 7.26583 34.8653 7.53428 36.0688C7.80272 37.2723 8.79104 38.0865 9.74176 37.8873Z" fill="#A03939"/>
<path d="M23.8333 11.5501C24.1147 11.5501 24.3961 11.4342 24.6025 11.2354C24.8077 11.0456 24.9167 10.7728 24.9167 10.5001C24.9167 10.2274 24.8077 9.95358 24.6025 9.75461C24.191 9.36598 23.4653 9.36598 23.0643 9.75461C22.8685 9.95358 22.75 10.2274 22.75 10.5001C22.75 10.7728 22.8685 11.0456 23.0642 11.2456C23.2695 11.4342 23.5519 11.5501 23.8333 11.5501Z" fill="#A03939"/>
<path d="M49.0642 24.4416C48.8685 24.6406 48.75 24.9144 48.75 25.1871C48.75 25.4599 48.8685 25.7326 49.0642 25.9326C49.2695 26.1214 49.5519 26.2371 49.8333 26.2371C50.1147 26.2371 50.3961 26.1212 50.6025 25.9224C50.8078 25.7327 50.9167 25.46 50.9167 25.1871C50.9167 24.9143 50.8077 24.6406 50.6025 24.4416C50.1908 24.053 49.4651 24.053 49.0642 24.4416Z" fill="#DB3F3D"/>
<path d="M53.3975 28.6545C53.2019 28.8535 53.0834 29.1273 53.0834 29.4C53.0834 29.6727 53.2019 29.9455 53.3975 30.1455C53.6028 30.3342 53.8853 30.45 54.1667 30.45C54.4481 30.45 54.7295 30.3341 54.9359 30.1353C55.1412 29.9456 55.25 29.6729 55.25 29.4C55.25 29.1271 55.141 28.8535 54.9359 28.6545C54.5242 28.2659 53.7985 28.2659 53.3975 28.6545Z" fill="#DB3F3D"/>
<path d="M26.3142 42.3044C26.1185 42.5034 26 42.7772 26 43.0499C26 43.3226 26.1185 43.5954 26.3142 43.7954C26.5195 43.9841 26.8019 44.0999 27.0833 44.0999C27.3647 44.0999 27.6461 43.984 27.8525 43.7852C28.0578 43.5955 28.1667 43.3228 28.1667 43.0499C28.1667 42.777 28.0577 42.5034 27.8525 42.3044C27.441 41.9158 26.7151 41.9158 26.3142 42.3044Z" fill="#DB3F3D"/>
<path d="M40.3975 47.5544C40.2019 47.7534 40.0834 48.0272 40.0834 48.2999C40.0834 48.5726 40.2019 48.8454 40.3975 49.0454C40.6028 49.2341 40.8853 49.3499 41.1667 49.3499C41.4481 49.3499 41.7295 49.234 41.9359 49.0352C42.1412 48.8455 42.25 48.5728 42.25 48.2999C42.25 48.027 42.141 47.7534 41.9359 47.5544C41.5242 47.1658 40.7985 47.1658 40.3975 47.5544Z" fill="#DB3F3D"/>
<path d="M16.2691 37.352C16.157 37.9211 16.5431 38.4706 17.1313 38.5794C17.561 38.6587 18.0052 38.7278 18.4455 38.7994C18.4706 38.0922 18.5108 37.3889 18.5833 36.6943C18.5837 36.6901 18.5839 36.6858 18.5845 36.6816C18.2389 36.6234 17.8745 36.5789 17.5357 36.5163C16.9472 36.4086 16.3802 36.7818 16.2691 37.352Z" fill="#A03939"/>
<path d="M10.5001 27.5021C10.6122 27.5379 10.7254 27.5543 10.8375 27.5543C11.2935 27.5543 11.7167 27.2744 11.867 26.8314C12.0532 26.2808 11.7443 25.6881 11.1751 25.5066C6.94229 24.1592 3.78857 22.4981 2.05564 20.7036C2.03343 20.6807 2.00324 20.6717 1.9794 20.6511C1.91278 20.8273 1.84832 21.0044 1.78562 21.1824C1.78373 21.1877 1.78183 21.1928 1.77993 21.198C1.58697 21.7464 1.41174 22.3028 1.24707 22.8633C3.29972 24.6262 6.46698 26.2187 10.5001 27.5021Z" fill="#A03939"/>
<path d="M24.9681 58.8416C24.9384 58.8547 24.9083 58.8678 24.8785 58.8809C23.0145 59.7032 21.0998 60.5402 19.8441 60.5103C20.1132 60.6206 20.3867 60.7226 20.6595 60.8261C20.9084 60.9198 21.1549 61.0182 21.4068 61.106C21.6365 61.1869 21.8701 61.2594 22.1022 61.3353C22.4625 61.452 22.8241 61.5656 23.1896 61.6712C23.2925 61.701 23.396 61.7294 23.4994 61.7582C24.2397 61.4692 25.0015 61.1342 25.7767 60.7922C25.9736 60.7052 26.1715 60.6182 26.3692 60.5311C26.3692 60.5311 26.3694 60.531 26.3697 60.5309L26.3696 60.5307C25.881 59.9854 25.4177 59.4188 24.9681 58.8416Z" fill="#A03939"/>
<path d="M58.3114 12.3669C55.8646 13.4231 52.9505 14.3411 49.5911 15.0855C49.007 15.2147 48.6431 15.7776 48.7764 16.3426C48.8907 16.8297 49.3372 17.1589 49.8312 17.1589C49.9116 17.1589 49.992 17.1506 50.0734 17.1322C53.7494 16.3185 56.9447 15.3008 59.5993 14.1145C59.1903 13.5171 58.7603 12.935 58.3114 12.3669Z" fill="#DB3F3D"/>
</g>
<defs>
<clipPath id="clip0_13_597">
<rect width="65" height="63" fill="white"/>
</clipPath>
</defs>
</svg>
