<svg width="124" height="72" viewBox="0 0 124 72" fill="none" xmlns="http://www.w3.org/2000/svg">
<path d="M107.184 17.0468C107.013 16.6268 105.709 15.9043 102.169 15.9043C99.972 15.9043 96.9158 16.1815 92.7343 16.9826C83.2191 18.8028 71.1334 22.6799 58.7045 27.8987C46.2757 33.1175 35.0243 39.0376 27.0275 44.5709C17.8475 50.9205 16.5757 54.2917 16.8532 54.9733C17.2807 56.023 21.6745 56.9353 31.8075 54.9408C31.5128 54.459 31.2291 53.9695 30.9568 53.473C30.9472 53.4555 30.9373 53.4377 30.9277 53.4202C30.8138 53.2117 30.702 53.0017 30.592 52.7907C30.573 52.7542 30.554 52.7177 30.5351 52.6812C30.4322 52.4825 30.3313 52.2825 30.2322 52.0815C30.208 52.0322 30.1838 51.983 30.1597 51.9337C30.0654 51.7407 29.9727 51.547 29.8819 51.352C29.855 51.2942 29.8284 51.236 29.8018 51.178C29.7147 50.9885 29.6289 50.7987 29.545 50.6075C29.5169 50.5432 29.4895 50.4787 29.4616 50.4145C29.3805 50.2262 29.2998 50.0377 29.2216 49.8477C29.2209 49.8462 29.2204 49.8447 29.2197 49.8432C30.5807 47.2707 37.5855 42.6769 47.4731 37.7513C51.3682 35.8108 55.7102 33.819 60.3304 31.8792C76.678 25.0157 91.0159 21.1084 94.8602 22.2836C95.5735 24.0369 96.1554 25.8589 96.5907 27.7384C105.145 21.8851 107.612 18.0918 107.184 17.0468Z" fill="#B68057"/>
<path d="M70.6189 1.06543C70.8757 1.13043 71.1314 1.19793 71.3862 1.26868C71.1317 1.19818 70.8759 1.13043 70.6189 1.06543Z" fill="#FFD042"/>
<path d="M69.8049 0.870117C70.0466 0.925118 70.2876 0.982619 70.5274 1.04262C70.2874 0.982869 70.0466 0.924868 69.8049 0.870117Z" fill="#FFD042"/>
<path d="M97.5231 36.719C97.5278 36.4798 97.532 36.2403 97.532 36C97.532 35.8035 97.5265 35.6087 97.5233 35.413C97.5204 35.415 97.5177 35.4167 97.5147 35.4185C97.5021 34.6425 97.4624 33.874 97.4003 33.1117C97.404 33.1092 97.4074 33.107 97.4111 33.1045C97.2621 31.2782 96.9775 29.4914 96.5681 27.7532C96.5757 27.7479 96.5831 27.7427 96.5908 27.7374C96.1552 25.8579 95.5736 24.0356 94.8603 22.2826C91.016 21.1076 76.6781 25.0149 60.3305 31.8782C55.7103 33.818 51.3683 35.8098 47.4732 37.7503C46.9187 40.2773 46.624 42.9036 46.624 45.5999C46.624 55.892 50.892 65.1681 57.7234 71.7292C51.5417 70.9739 45.8495 68.6086 41.0648 65.0616C41.0618 65.0623 41.0589 65.0631 41.0559 65.0638C46.9308 69.4239 54.1754 72.0002 62.0149 72.0002C79.7755 72.0002 94.491 58.7863 97.1154 41.5286C97.0989 41.5388 97.0826 41.5491 97.0658 41.5591C97.309 39.9733 97.4829 38.3638 97.5231 36.719Z" fill="#FFD042"/>
<path d="M82.9616 6.92689C79.5302 4.38261 75.6319 2.44759 71.4209 1.27808C75.628 2.44859 79.5213 4.38636 82.9502 6.92964C82.9539 6.92864 82.9576 6.92764 82.9616 6.92689Z" fill="#FFD042"/>
<path d="M66.4346 0.2771C66.6223 0.3006 66.8092 0.327352 66.9959 0.354102C66.8092 0.327352 66.6225 0.3006 66.4346 0.2771Z" fill="#FFD042"/>
<path d="M31.8092 54.9399C31.5142 54.4582 31.2296 53.9692 30.9568 53.4724C31.2293 53.9692 31.513 54.4584 31.8075 54.9402C31.8082 54.9402 31.8087 54.9402 31.8092 54.9399Z" fill="#FFD042"/>
<path d="M29.8821 51.3516C29.9728 51.5466 30.0656 51.7403 30.1598 51.9333C30.0656 51.7403 29.9731 51.5463 29.8821 51.3516Z" fill="#FFD042"/>
<path d="M46.624 45.5996C46.624 42.9033 46.9187 40.277 47.4732 37.75C37.5855 42.6756 30.5807 47.2696 29.2197 49.8419C29.2205 49.8434 29.221 49.8449 29.2217 49.8464C29.2999 50.0364 29.3803 50.2249 29.4617 50.4131C29.4896 50.4774 29.5169 50.5421 29.5451 50.6061C29.6289 50.7974 29.7147 50.9874 29.8018 51.1767C29.8285 51.2347 29.8548 51.2927 29.882 51.3507C29.9727 51.5457 30.0655 51.7394 30.1597 51.9324C30.1839 51.9817 30.208 52.0309 30.2322 52.0802C30.3314 52.2812 30.4323 52.4812 30.5351 52.6799C30.5538 52.7164 30.5731 52.7529 30.5921 52.7894C30.7021 53.0004 30.8138 53.2104 30.9278 53.4189C30.9374 53.4367 30.9473 53.4542 30.9569 53.4717C31.2297 53.9684 31.5143 54.4574 31.8093 54.9392C31.8221 54.9367 31.8342 54.9344 31.847 54.9319C32.7784 56.454 33.819 57.8987 34.9558 59.2577C34.9703 59.2547 34.9846 59.2517 34.9994 59.2485C35.4853 59.8285 35.9774 60.4005 36.4978 60.9478C36.488 60.95 36.4786 60.952 36.4687 60.954C37.8899 62.4503 39.4364 63.8233 41.0936 65.0538C41.084 65.0563 41.0749 65.0583 41.0653 65.0608C45.85 68.6079 51.5421 70.9731 57.7239 71.7284C50.892 65.1678 46.624 55.8917 46.624 45.5996Z" fill="#DBB246"/>
<path d="M82.9509 6.92983C79.522 4.38655 75.6286 2.44878 71.4215 1.27826C71.4099 1.27501 71.3983 1.27201 71.3868 1.26876C71.1322 1.19826 70.8764 1.13051 70.6194 1.06551C70.5886 1.05776 70.5578 1.05026 70.5272 1.04276C70.2872 0.982761 70.0465 0.92526 69.8047 0.870259C69.7562 0.859259 69.7076 0.849009 69.659 0.838259C69.4328 0.787758 69.2059 0.739257 68.978 0.693257C68.9124 0.680007 68.8465 0.667757 68.7809 0.655006C68.5683 0.613256 68.3554 0.572756 68.1416 0.535256C68.0585 0.520506 67.9749 0.507256 67.8917 0.493256C67.6927 0.459505 67.4934 0.426505 67.2931 0.396254C67.1945 0.381254 67.0953 0.368254 66.9967 0.354254C66.81 0.327754 66.623 0.301004 66.4353 0.277254C66.3201 0.262753 66.2044 0.250502 66.089 0.237002C65.9156 0.217002 65.7427 0.196251 65.5686 0.178751C65.4356 0.165251 65.3022 0.154752 65.169 0.142751C65.0102 0.128501 64.8516 0.113251 64.692 0.101251C64.5386 0.0897507 64.3844 0.0812497 64.2305 0.0717496C64.0897 0.0629995 63.9493 0.0527504 63.808 0.0455003C63.6218 0.0360002 63.4346 0.0305005 63.2476 0.0240004C63.1369 0.0202504 63.0264 0.0144996 62.9154 0.0114995C62.6162 0.00399945 62.3163 0 62.0153 0C44.2493 0 29.5303 13.2217 26.9124 30.4869C35.1669 25.436 44.5938 20.6652 54.115 16.6682C64.0263 12.5061 73.8658 9.19636 82.9509 6.92983Z" fill="#DBB246"/>
<path d="M123.434 10.2144V10.2134C121.126 4.56588 112.636 2.40586 98.8851 3.95562C93.9807 4.50938 88.6174 5.51639 82.962 6.92691C82.9583 6.92791 82.9543 6.92891 82.9506 6.92966C73.8658 9.19619 64.0263 12.506 54.1147 16.6675C44.5936 20.6646 35.1667 25.4354 26.9121 30.4862C9.35222 41.2308 -2.89485 53.2445 0.595714 61.7873C2.42042 66.2484 8.34393 68.5159 17.4043 68.5159C23.8241 68.5159 31.8315 67.3661 41.0562 65.0641C41.0591 65.0633 41.0621 65.0626 41.065 65.0618C41.0747 65.0593 41.0838 65.0573 41.0934 65.0548C39.4362 63.8243 37.8897 62.4513 36.4685 60.955C29.7804 62.4476 23.868 63.2328 19.159 63.2328C12.9572 63.2328 8.82415 61.8903 7.67797 59.076C4.44589 51.1392 26.2082 34.504 56.2852 21.9203C75.6967 13.799 93.8293 9.34994 105.116 9.34944C105.117 9.34944 105.118 9.34944 105.118 9.34944C111.319 9.34944 115.451 10.6922 116.597 13.5062C118.613 18.456 110.905 26.7894 97.5236 35.413C97.5268 35.6085 97.5322 35.8035 97.5322 36C97.5322 36.2405 97.529 36.4803 97.5233 36.719C97.4831 38.3638 97.3093 39.9733 97.0661 41.5593C97.0828 41.5491 97.0989 41.5388 97.1156 41.5288C116.704 29.5127 126.544 17.8288 123.434 10.2144Z" fill="#D49E6C"/>
<path d="M57.0384 23.769C24.427 37.4129 7.37279 53.0841 9.5021 58.3129C10.2576 60.1685 13.7775 61.233 19.1591 61.233C23.581 61.233 28.9612 60.542 34.9557 59.2587C33.8187 57.8997 32.7783 56.4547 31.847 54.9329C31.8341 54.9354 31.8221 54.9376 31.8092 54.9401C31.8087 54.9401 31.8082 54.9404 31.8078 54.9404C21.6747 56.9349 17.2809 56.0227 16.8535 54.9729C16.576 54.2911 17.8477 50.9201 27.0277 44.5705C35.0245 39.0372 46.2759 33.1171 58.7048 27.8983C71.1336 22.6795 83.2191 18.8025 92.7346 16.9822C96.916 16.1814 99.9722 15.9039 102.169 15.9039C105.709 15.9039 107.013 16.6267 107.185 17.0465C107.612 18.0915 105.145 21.8848 96.5914 27.7376C96.5838 27.7428 96.5764 27.7481 96.5687 27.7533C96.9782 29.4916 97.2628 31.2784 97.4118 33.1046C110.015 24.7905 116.095 17.5162 114.773 14.2694C114.018 12.4139 110.499 11.3494 105.119 11.3494V9.34937L105.117 11.3494C93.5979 11.3499 75.6248 15.9929 57.0384 23.769Z" fill="#D49E6C"/>
<path d="M34.999 59.2494C34.9844 59.2527 34.9701 59.2554 34.9553 59.2587C28.9605 60.5422 23.5806 61.233 19.1587 61.233C13.7774 61.233 10.2574 60.1687 9.50171 58.3129C7.37239 53.0841 24.4266 37.4129 57.038 23.769C75.6244 15.9929 93.5975 11.3499 105.116 11.3494L105.118 9.34937C105.118 9.34937 105.116 9.34937 105.116 9.34937C93.8291 9.34987 75.6965 13.7989 56.285 21.9203C26.2079 34.5042 4.44566 51.1394 7.67774 59.0762C8.82392 61.8907 12.957 63.233 19.1587 63.233C23.8677 63.233 29.7801 62.4477 36.4683 60.9552C36.4781 60.953 36.4875 60.951 36.4974 60.949C35.9769 60.4015 35.4849 59.8295 34.999 59.2494Z" fill="#B68057"/>
<path d="M114.773 14.2694C116.095 17.5162 110.015 24.7905 97.4115 33.1046C97.4078 33.1071 97.4043 33.1094 97.4006 33.1119C97.4628 33.8741 97.5025 34.6429 97.5151 35.4187C97.518 35.4169 97.5208 35.4149 97.5237 35.4132C110.905 26.7896 118.613 18.4562 116.597 13.5064C115.451 10.6924 111.319 9.34961 105.118 9.34961V11.3496C110.498 11.3494 114.018 12.4136 114.773 14.2694Z" fill="#B68057"/>
</svg>
