<svg width="25" height="40" viewBox="0 0 25 40" fill="none" xmlns="http://www.w3.org/2000/svg">
<path d="M25 31.875C25 29.3375 24.3862 26.85 23.2199 24.675L19.6429 18V32H25V31.875ZM5.35714 18L1.78013 24.675C0.613839 26.85 0 29.3375 0 31.875L0 32H5.35714V18ZM5.35714 34H0L0 35C0 36.6562 1.19978 38 2.67857 38H5.35714V37.5C5.35714 38.8813 6.35603 40 7.58929 40H17.4107C18.644 40 19.6429 38.8813 19.6429 37.5V38H22.3214C23.8002 38 25 36.6562 25 35V34H19.6429V33.5C19.6429 31.8625 18.9397 30.4125 17.8571 29.5V11.5C17.8571 7.16875 16.5904 3.0625 13.3036 0.299999C12.8292 -0.100001 12.1708 -0.100001 11.6964 0.299999C8.4096 3.0625 7.14286 7.16875 7.14286 11.5V29.5C6.06027 30.4125 5.35714 31.8625 5.35714 33.5V34ZM11.808 8H13.1975C14.2913 8 15.1842 8.99375 15.1842 10.225C15.1842 10.3813 15.0725 10.5 14.9386 10.5H10.067C9.92745 10.5 9.82143 10.375 9.82143 10.225C9.82143 9 10.7087 8 11.808 8Z" fill="#F8F8F8"/>
</svg>
