<svg width="42" height="42" viewBox="0 0 42 42" fill="none" xmlns="http://www.w3.org/2000/svg">
<path d="M32.3324 30.7373C32.1469 30.2406 31.9097 29.7655 31.6247 29.3198C32.0151 28.673 32.4379 28.0462 32.8913 27.4418C33.2695 27.5403 33.6591 27.5901 34.0509 27.5902C34.1998 27.5127 41.3494 17.4709 41.3919 17.2887C41.4344 17.1064 38.7065 15.2966 38.5833 15.2971C38.4601 15.2976 31.4261 25.6044 31.3728 25.7204C31.3194 25.8364 31.9413 26.7023 31.9413 26.7023C31.9413 26.7023 31.8238 26.868 31.7945 27.001C30.9991 26.525 30.2418 25.988 29.5294 25.3948C29.4649 25.3125 29.8197 24.9854 29.8197 24.9854C30.1431 25.0613 30.4758 25.0927 30.8087 25.0787C31.01 25.009 38.04 15.095 38.1162 14.9366C38.1924 14.7782 35.3785 12.9367 35.0481 12.9441C34.7176 12.9515 28.1683 23.0233 28.0927 23.2114C28.0171 23.3995 28.9102 24.3111 28.9102 24.3111C28.9102 24.3111 28.7273 24.7015 28.6685 24.7844C28.6098 24.8673 24.5915 21.952 24.5615 21.8721C24.5314 21.7921 25.2048 21.0464 25.2527 20.8972C25.3006 20.7481 23.9113 19.089 23.9113 19.089C23.9113 19.089 24.3883 18.4164 24.4747 18.2945C24.5611 18.1727 27.7713 21.035 28.1607 21.128C28.5501 21.221 30.1033 18.8064 30.2184 18.5218C30.3335 18.2371 27.5563 16.3338 27.5563 16.3338L27.7915 15.9512L28.3826 16.5241C28.6146 16.7473 29.2484 16.618 29.5029 16.4322C29.7575 16.2465 29.4446 15.6584 29.4446 15.6584L29.9656 15.2294C30.0688 15.2849 30.1824 15.3187 30.2995 15.3287C30.4166 15.3388 30.5348 15.3248 30.647 15.2877C30.7179 15.2605 30.7817 15.2174 30.8337 15.1616C30.8856 15.1059 30.9242 15.039 30.9464 14.9662C30.9687 14.8934 30.974 14.8167 30.962 14.7419C30.9499 14.6672 30.9209 14.5965 30.877 14.5352C30.6781 14.3062 29.835 14.2211 29.835 14.2211C29.8565 13.9496 29.8235 13.6772 29.7381 13.42C29.5979 13.1081 29.3651 12.672 28.4971 12.8769C27.6291 13.0818 27.3833 14.2846 27.3833 14.2846C27.3833 14.2846 26.8912 14.214 26.8011 14.2087C26.7109 14.2033 26.5848 14.9417 26.5838 15.0655C26.5827 15.1892 26.7058 15.2399 26.8315 15.3583C26.9571 15.4767 27.1112 15.7691 27.1689 15.81C27.2266 15.8509 27.0099 16.0342 27.0099 16.0342L23.32 13.1247L23.6177 12.7864C23.6177 12.7864 24.7539 13.6507 24.8825 13.6833C25.5102 13.0387 26.0716 12.3323 26.5581 11.5752C26.6371 11.3822 23.0953 8.93657 22.9714 8.90736C22.8476 8.87815 21.7128 10.8862 21.6402 10.9886C21.5676 11.0909 22.0787 11.6951 22.0787 11.6951C22.0787 11.6951 21.9167 12.0051 21.8911 12.0821C21.8654 12.1591 20.1802 10.9275 19.9056 10.8867C19.631 10.8458 18.3928 12.8977 18.3226 13.119C18.2525 13.3403 21.9695 16.1299 21.9695 16.1299L21.3961 17.0711C20.7463 16.5808 20.0579 16.144 19.3373 15.765C18.9527 15.6754 18.08 17.2834 18.08 17.2834C18.08 17.2834 17.8311 17.1655 17.5961 17.0281C17.361 16.8907 14.6336 14.9274 14.5518 14.8694C14.4701 14.8114 14.7661 14.5672 14.811 14.5039C14.856 14.4405 15.6603 14.8351 15.8596 14.7273C16.0588 14.6196 23.5243 4.84578 23.6364 4.64692C23.7485 4.44806 20.9328 2.5174 20.7785 2.56179C20.6242 2.60617 13.2644 12.7406 13.2668 12.8595C13.4072 13.1487 13.5759 13.4229 13.7704 13.6781C13.6889 13.8224 13.5928 13.958 13.4836 14.0826C13.3833 14.224 11.4058 12.4262 11.3289 12.3716C11.2519 12.317 11.5743 12.0255 11.6873 11.9885C11.8003 11.9514 12.3388 12.3845 12.54 12.3148C12.7412 12.2451 20.1973 2.36211 20.2561 2.27925C20.3149 2.19639 17.7058 0.229138 17.3395 0.276982C16.9731 0.324826 10.4087 9.88787 10.3139 10.0624C10.2191 10.2368 10.685 11.2411 10.685 11.2411C10.685 11.2411 9.6579 12.8934 9.55226 13.0017C9.44662 13.1099 8.42032 12.8143 8.29003 12.8757C8.15973 12.9372 0.83832 23.8532 0.770104 24.1125C0.701888 24.3718 3.41518 25.9881 3.49693 26.0461C3.57869 26.1041 10.9644 15.5559 11.1373 15.3122C11.3101 15.0685 10.4514 13.6905 10.4514 13.6905L10.7245 13.3055L12.9471 15.094C12.9471 15.094 12.7155 15.4205 12.6183 15.4761C12.5211 15.5317 11.7918 15.6225 11.6567 15.6805C11.5216 15.7386 4.32229 26.0747 4.13461 26.4616C3.94692 26.8486 6.64638 28.4845 6.85843 28.481C7.07048 28.4776 14.3805 17.6999 14.4392 17.617C14.2087 17.1412 13.9395 16.6857 13.6343 16.2551L13.9558 15.7507L17.6329 18.0871C17.4762 18.3347 17.3349 18.5917 17.2101 18.8567C17.1621 19.0058 18.9379 20.3236 18.9957 20.3646C19.0534 20.4055 18.8228 20.6083 18.7641 20.6911C18.7053 20.774 15.8793 18.858 15.6919 18.9082C15.5045 18.9584 13.6181 21.8327 13.6381 22.0593C13.6581 22.2859 21.4715 27.9216 21.6505 27.924C21.8295 27.9264 23.7735 25.093 23.8269 24.977C23.8802 24.861 21.3035 22.675 21.2282 22.5263C21.1529 22.3777 21.3561 22.346 21.4287 22.2436C21.5013 22.1413 23.4388 23.4859 23.5655 23.4805C23.6921 23.4751 23.9526 22.9346 23.9975 22.8712C24.0424 22.8079 27.9586 25.7753 27.9586 25.7753C27.9586 25.7753 27.5854 26.3017 27.5128 26.4041C27.4402 26.5064 26.0051 26.1554 25.8197 26.2436C25.6342 26.3319 18.1129 36.8572 18.0788 36.9868C18.92 37.7741 19.8523 38.4573 20.8563 39.0222C21.0197 38.955 28.7709 28.666 28.885 28.5051C28.999 28.3443 28.4743 27.4229 28.4045 27.3074C28.3346 27.1919 28.7734 26.6241 28.8533 26.5929C29.5922 27.0509 30.3052 27.5492 30.9894 28.0855C31.0538 28.1679 30.6998 28.7079 30.6272 28.8103C30.5546 28.9127 29.4472 28.8232 29.2874 28.8345C29.1277 28.8457 28.5962 29.8093 26.6604 32.4068C24.7245 35.0042 21.5355 39.3793 21.5032 39.5981C21.4709 39.8169 23.8801 41.3422 24.028 41.3885C24.1759 41.4348 24.9636 40.6602 26.5397 38.4376C28.1157 36.215 32.2653 30.8728 32.3324 30.7373ZM17.6955 1.65021C17.835 1.74911 18.7979 2.30737 18.7169 2.46236C18.4453 2.93262 18.1089 3.36246 17.7177 3.73892C17.2978 3.56222 16.9221 3.29581 16.6164 2.95798C16.6505 2.82834 17.523 1.55717 17.6955 1.65021ZM16.3333 3.48973C16.7093 3.67852 17.0458 3.93699 17.3252 4.25169L16.6029 5.27039C16.6029 5.27039 15.4151 4.6113 15.5016 4.48945C15.588 4.36759 16.1543 3.48733 16.3333 3.48973ZM15.1752 4.9905C15.5606 5.19742 15.91 5.46498 16.2104 5.78316C16.1516 5.86602 15.3186 7.04069 15.2369 6.98272L14.2173 6.25975C14.2173 6.25975 15.1229 4.98272 15.1752 4.9905ZM13.9486 6.80173C14.2912 6.99906 14.6044 7.24334 14.8794 7.52764C14.6278 8.02579 14.3116 8.48885 13.9391 8.90458C13.5746 8.67871 13.2393 8.40895 12.9405 8.1012C13.218 7.62561 13.557 7.18859 13.9486 6.80173ZM11.4044 10.3082C11.7962 9.71078 12.2306 9.14239 12.7042 8.60759C12.7042 8.60759 13.5843 9.23167 13.5448 9.32817C13.1687 9.91908 12.7291 10.4672 12.2341 10.9625C12.1001 10.8967 11.351 10.4242 11.4044 10.3082ZM3.30225 24.5676C3.17782 24.743 2.30073 24.0332 2.17164 23.9197C2.04254 23.8062 3.10316 22.2289 3.22458 22.1392C3.34601 22.0495 4.29403 22.751 4.34663 22.8909C4.06583 23.4888 3.7152 24.0517 3.30225 24.5676ZM4.39701 20.4654C4.46959 20.3631 5.50313 21.2498 5.50313 21.2498C5.50313 21.2498 4.88146 22.208 4.82751 22.2943C4.43592 22.1396 4.07642 21.9144 3.76648 21.6298C3.69674 21.4632 4.32924 20.5712 4.39701 20.4654ZM4.91742 20.0067C5.13671 19.6055 5.37849 19.2169 5.64158 18.8428L6.70186 19.5287C6.80285 19.6003 6.07838 20.6322 6.03 20.7004C5.62896 20.5212 5.25468 20.2878 4.91742 20.0067ZM6.98873 19.1242C6.63453 18.9498 6.2995 18.7392 5.98886 18.4957C6.13073 18.119 6.33703 17.7695 6.59836 17.4629C6.98659 17.6456 7.35776 17.8622 7.70763 18.1103C7.52957 18.4879 7.28609 18.8312 6.98873 19.1242ZM7.98413 17.7204C7.6121 17.5454 7.25853 17.334 6.92851 17.0891C7.11626 16.6725 7.35169 16.279 7.62998 15.9164C7.98685 16.086 8.32142 16.2986 8.62639 16.5497C8.75834 16.6286 8.04965 17.679 7.98068 17.7253L7.98413 17.7204ZM9.69347 14.8818C9.52084 15.3439 9.27905 15.7777 8.97653 16.168C8.64146 16.0199 8.32351 15.8362 8.02806 15.62C8.2424 15.1654 8.50078 14.7328 8.7994 14.3284C9.12477 14.4691 9.42661 14.6585 9.69482 14.89L9.69347 14.8818ZM20.8865 4.0301C21.0259 4.129 21.9854 4.69214 21.9044 4.84713C21.6328 5.31739 21.2963 5.74723 20.9052 6.12369C20.4867 5.94442 20.1115 5.67836 19.8039 5.34275C19.838 5.21311 20.707 3.94681 20.8865 4.0301ZM19.5208 5.8745C19.8984 6.06066 20.2353 6.31948 20.5127 6.63646L19.7938 7.65028C19.7938 7.65028 18.6061 6.99119 18.6925 6.86934C18.7789 6.74749 19.3453 5.86723 19.5208 5.8745ZM18.3661 7.3704C18.7506 7.5791 19.0989 7.8483 19.3978 8.16793C19.3425 8.24591 18.5061 9.42546 18.4243 9.36748L17.4048 8.64451C17.4048 8.64451 18.3069 7.37236 18.3661 7.3704ZM17.1361 9.18649C17.4777 9.38493 17.7917 9.62729 18.0703 9.90753C17.8187 10.4057 17.5025 10.8687 17.13 11.2845C16.7646 11.0604 16.4281 10.7922 16.1279 10.486C16.4053 10.0103 16.7444 9.57327 17.1361 9.18649ZM14.5918 12.693C14.9837 12.0955 15.4181 11.5272 15.8917 10.9924C15.8917 10.9924 16.7891 11.5921 16.7357 11.7081C16.3599 12.2992 15.9203 12.8474 15.425 13.3424C15.3033 13.3 14.5385 12.809 14.5918 12.693ZM6.67592 27.0771C6.5515 27.2525 5.67441 26.5427 5.54396 26.4209C5.41351 26.2991 6.46992 24.7481 6.59826 24.6487C6.7266 24.5492 7.66289 25.2571 7.71685 25.4052C7.43418 25.9999 7.08492 26.5608 6.67592 27.0771ZM7.77069 22.9749C7.83981 22.8774 8.872 23.7558 8.872 23.7558C8.872 23.7558 8.25168 24.7224 8.19637 24.8004C7.80139 24.6527 7.43896 24.4305 7.12843 24.1456C7.06696 23.9775 7.6981 23.0773 7.77069 22.9749ZM8.28629 22.5128C8.51125 22.115 8.75616 21.7288 9.02006 21.3557L10.0625 22.0362C10.1635 22.1079 9.43763 23.1314 9.3906 23.208C8.99279 23.0269 8.62143 22.7931 8.28629 22.5128ZM10.3507 21.64C9.99669 21.4652 9.66169 21.2547 9.35082 21.0115C9.50272 20.6261 9.72462 20.2717 10.0051 19.9665C10.388 20.1583 10.7534 20.383 11.0971 20.6383C10.915 21.0163 10.667 21.359 10.3651 21.6502L10.3507 21.64ZM11.3461 20.2362C10.9757 20.0624 10.6237 19.8521 10.2953 19.6083C10.4824 19.1802 10.7222 18.7768 11.0092 18.4078C11.3678 18.5743 11.7028 18.7872 12.0056 19.0411C12.1045 19.1259 11.4233 20.1884 11.3509 20.2396L11.3461 20.2362ZM13.0602 17.401C12.8926 17.8634 12.6552 18.2979 12.3564 18.6892C12.0171 18.5409 11.6967 18.353 11.4017 18.1295C11.6157 17.6771 11.8764 17.2481 12.1792 16.8495C12.5023 16.9861 12.8013 17.1734 13.065 17.4044L13.0602 17.401ZM29.2769 13.6423C29.3587 13.7003 29.5394 14.0774 29.3135 14.1004C29.0876 14.1233 28.826 13.9012 28.7155 14.006C28.605 14.1108 28.2519 14.1094 28.618 14.3983C28.9928 14.6125 29.4053 14.7534 29.8339 14.8137C29.8339 14.8137 28.9849 15.369 28.9886 15.4962C28.9924 15.6234 29.1427 15.7886 29.1397 15.8743C29.1367 15.9601 29.021 16.215 28.9219 16.1814C28.652 16.0996 28.4155 15.9343 28.2459 15.7089C28.0764 15.4835 27.9822 15.2094 27.9769 14.9253C27.893 13.9428 28.584 13.3047 29.2769 13.6423ZM22.3008 11.0762C22.5603 10.6481 22.8716 10.2537 23.2274 9.90195C23.2274 9.90195 25.7414 11.626 25.7019 11.7225C25.4226 12.1585 25.089 12.5571 24.7092 12.9085C24.6274 12.8505 22.3184 11.1839 22.3008 11.0762ZM23.2845 20.9006C23.2882 21.0278 23.4627 22.0965 23.3203 22.0834C23.1778 22.0702 23.0319 22.062 22.9826 21.9684C22.9333 21.8749 22.8737 20.3383 22.7708 20.2287C22.6531 20.1477 22.5225 20.0873 22.3844 20.0499L22.3484 21.548C22.2224 21.4859 22.1072 21.4042 22.0069 21.3059C21.972 21.2226 21.9096 19.955 21.784 19.8366C21.7103 19.7663 21.6168 19.7204 21.5159 19.7051L21.3873 21.0789C21.3873 21.0789 20.8861 20.848 20.7444 21.0479C20.6027 21.2477 19.6179 22.3001 19.8307 22.5096C20.0435 22.7191 22.4587 24.8273 22.4156 24.9798C22.3627 25.1323 22.282 25.2738 22.1775 25.397C22.1775 25.397 21.7618 24.8825 21.6754 25.0043C21.589 25.1262 21.5066 26.2617 21.3138 26.2788C21.1209 26.2959 20.9021 26.2579 20.919 26.1527C20.9358 26.0474 20.8385 24.2277 20.8385 24.2277C20.8385 24.2277 20.497 23.9856 20.4575 24.0821C20.418 24.1786 20.5299 25.7229 20.3943 25.7001C20.2192 25.6088 20.0574 25.4941 19.9134 25.359C19.9262 24.8479 19.8968 24.337 19.8255 23.8318C19.7418 23.7358 19.5831 23.6232 19.4865 23.7085C19.4034 24.1333 19.3613 24.5647 19.3609 24.9966C19.3609 24.9966 17.2086 23.4045 16.2157 22.7663C15.2227 22.1281 14.8901 21.9143 14.9627 21.8119C15.3069 21.2137 15.6937 20.6409 16.1201 20.0982C16.2385 20.0942 18.9846 22.0415 19.0903 21.9333C19.1959 21.8251 20.0502 20.4165 20.0502 20.4165C19.4574 19.9397 18.8938 19.4275 18.3624 18.8827C18.3635 18.7589 19.4998 16.9424 19.6477 16.9886C19.7956 17.0349 21.7493 18.4789 21.9516 18.2854C22.5114 17.5723 23.0091 16.8125 23.439 16.0145C23.3884 15.9127 19.8091 13.316 19.7909 13.1786C19.9005 12.8333 20.0913 12.5188 20.3471 12.2618C20.6296 12.1691 22.9152 14.0829 25.3187 15.9118C27.7223 17.7407 28.9595 18.6766 28.9356 18.8427C28.9117 19.0089 28.2606 19.917 28.1403 19.8317C28.0201 19.7465 24.6028 16.8398 24.407 16.9427C23.7363 17.5833 23.1514 18.3089 22.6673 19.1005C22.7268 19.2306 24.2427 20.7011 24.1809 20.8697C24.0738 21.0686 23.9426 21.2536 23.7903 21.4205L23.5686 20.7139C23.5686 20.7139 23.2663 20.7632 23.2652 20.887L23.2845 20.9006ZM35.6276 14.4098C35.7671 14.5087 36.739 15.0441 36.6628 15.2025C36.4027 15.6785 36.0777 16.1163 35.6973 16.5029C35.2764 16.3281 34.9003 16.0614 34.596 15.722C34.5888 15.5997 35.4276 14.3046 35.6276 14.4098ZM34.3004 16.2815C34.6858 16.455 35.0336 16.7016 35.3248 17.0079L34.6059 18.0217C34.6059 18.0217 33.3974 17.3919 33.47 17.2895C33.5426 17.1872 34.107 16.2689 34.3004 16.2815ZM33.1807 17.8096C33.5745 18.0001 33.9335 18.2547 34.2436 18.5632C34.1883 18.6412 33.4048 19.8583 33.3038 19.7867L32.2602 19.0466C32.2602 19.0466 33.1092 17.7882 33.1615 17.7959L33.1807 17.8096ZM31.9975 19.6515C32.3486 19.8326 32.6723 20.0621 32.9593 20.3335C32.716 20.836 32.4079 21.3047 32.0431 21.7275C31.6612 21.5131 31.3073 21.2523 30.9893 20.951C31.2603 20.472 31.5929 20.0305 31.9783 19.6379L31.9975 19.6515ZM29.535 23.2159C29.9093 22.6058 30.3239 22.0212 30.7758 21.4661C30.7758 21.4661 31.6835 22.0512 31.635 22.1706C31.2813 22.7741 30.861 23.3362 30.382 23.8459C30.2493 23.7884 29.4568 23.3363 29.5158 23.2023L29.535 23.2159ZM26.7495 27.2766C27.0664 27.4343 27.3567 27.6402 27.6104 27.887C27.4197 28.3425 27.1569 28.7647 26.8323 29.1372C26.5011 28.9701 26.1898 28.7665 25.904 28.5302C26.1423 28.0847 26.4257 27.6646 26.7495 27.2766ZM25.5253 28.7891C25.8732 28.9753 26.1962 29.2044 26.4871 29.4711C26.6025 29.553 25.8546 30.5975 25.7822 30.6487C25.4272 30.4441 25.0923 30.2067 24.7819 29.9394C24.9825 29.5275 25.2321 29.1413 25.5253 28.7891ZM20.7919 37.2479C20.6434 37.4063 19.8167 36.6662 19.6945 36.543C19.5723 36.4197 20.6947 34.9082 20.8244 34.817C20.9541 34.7259 21.8593 35.4776 21.905 35.6272C21.5968 36.2079 21.2233 36.7518 20.7919 37.2479ZM22.436 35.0516C22.0506 34.8782 21.7028 34.6316 21.4117 34.3252C21.3537 34.1522 22.026 33.2958 22.102 33.1886C22.1781 33.0813 23.1688 34.0182 23.1688 34.0182L22.436 35.0516ZM23.6955 33.5201C23.3097 33.3164 22.9524 33.0631 22.6327 32.7664C22.8759 32.3778 23.1413 32.0035 23.4276 31.6453L24.4471 32.3683C24.5055 32.439 23.7329 33.4367 23.6811 33.5098L23.6955 33.5201ZM24.76 32.0188C24.4187 31.8221 24.0967 31.5938 23.7982 31.3368C23.9583 30.9552 24.1866 30.6056 24.4717 30.3054C24.8416 30.5194 25.1909 30.7671 25.5153 31.0454C25.3064 31.4033 25.0397 31.7242 24.7264 31.9949L24.76 32.0188ZM30.9935 30.4545C30.7975 30.9073 30.5352 31.3287 30.2154 31.7047C29.8843 31.5375 29.573 31.3339 29.2871 31.0977C29.5247 30.6564 29.8039 30.2387 30.121 29.8504C30.4276 30.0017 30.7101 30.1972 30.9599 30.4306L30.9935 30.4545ZM38.9556 16.7697C39.0951 16.8686 40.067 17.404 39.9908 17.5624C39.729 18.0376 39.4024 18.4742 39.0205 18.8594C38.5995 18.6846 38.2234 18.4179 37.9192 18.0785C37.936 17.9732 38.7748 16.6781 38.9556 16.7697ZM37.6284 18.6414C38.0137 18.815 38.3615 19.0616 38.6528 19.3678L37.9339 20.3816C37.9339 20.3816 36.7254 19.7518 36.798 19.6494C36.8706 19.547 37.4542 18.6424 37.6284 18.6414ZM36.5087 20.1695C36.9025 20.36 37.2615 20.6146 37.5716 20.9231C37.3101 21.3682 36.9943 21.7793 36.6318 22.1465L35.6074 21.4202C35.6074 21.4202 36.4564 20.1617 36.5087 20.1695ZM34.3558 23.3381C34.6128 22.8519 34.9324 22.4012 35.3062 21.9977C35.4794 22.1205 36.2746 22.5891 36.2681 22.6798C36.0289 23.1845 35.7222 23.6547 35.3567 24.0772C34.9953 23.8708 34.6594 23.6228 34.3558 23.3381ZM32.8726 25.5826C33.2445 24.9709 33.6591 24.3861 34.1134 23.8328C34.1134 23.8328 35.0211 24.4179 34.9726 24.5373C34.612 25.1371 34.1852 25.6945 33.7004 26.1989C33.5965 26.1619 32.8041 25.7099 32.863 25.5758L32.8726 25.5826ZM28.8726 31.3458C29.2203 31.5325 29.5433 31.7616 29.8345 32.0279C29.9451 32.1063 29.202 33.1543 29.1296 33.2054C28.7746 33.0009 28.4397 32.7634 28.1292 32.4961C28.3263 32.0824 28.5727 31.6938 28.863 31.339L28.8726 31.3458ZM24.1297 39.7978C24.0052 39.9733 23.1544 39.2162 23.0323 39.0929C22.9101 38.9696 24.0325 37.4581 24.1622 37.367C24.2918 37.2758 25.2018 38.031 25.2427 38.1772C24.9371 38.7594 24.5634 39.3035 24.1297 39.7978ZM25.7732 37.5718C25.3877 37.3984 25.0399 37.1518 24.7488 36.8454C24.6956 36.6758 25.3631 35.816 25.444 35.7122C25.5248 35.6084 26.5107 36.5419 26.5107 36.5419C26.5107 36.5419 25.8147 37.5133 25.7732 37.5718ZM27.0326 36.0403C26.6468 35.8368 26.2895 35.5834 25.9698 35.2866C26.2155 34.8996 26.4808 34.5254 26.7648 34.1656L27.7891 34.8919C27.848 34.9923 27.0707 35.9867 27.0188 36.0598L27.0326 36.0403ZM28.0972 34.539C27.7558 34.3424 27.4338 34.1141 27.1353 33.857C27.2973 33.4763 27.5272 33.1278 27.8137 32.829C28.182 33.0419 28.5297 33.2885 28.8525 33.5656C28.6515 33.9374 28.3842 34.2694 28.0641 34.5449L28.0972 34.539ZM19.9022 17.5573C19.5359 17.9586 19.2343 18.4147 19.0088 18.9089C18.9855 19.1048 19.3473 19.2368 19.4464 19.2192C19.8058 18.8246 20.1158 18.3875 20.3693 17.9178C20.3841 17.7745 19.9421 17.5417 19.8691 17.5632L19.9022 17.5573Z" fill="white"/>
</svg>

